<svg width="25" height="25" viewBox="0 0 25 25" fill="none" xmlns="http://www.w3.org/2000/svg">
<path opacity="0.4" d="M19.5146 4.44215C16.8329 2.79723 14.4924 3.46011 13.0864 4.51601C12.5098 4.94896 12.2216 5.16543 12.052 5.16543C11.8824 5.16543 11.5942 4.94896 11.0176 4.51601C9.61162 3.46011 7.27109 2.79723 4.58944 4.44215C1.07007 6.60094 0.273722 13.7229 8.39153 19.7314C9.93772 20.8758 10.7108 21.448 12.052 21.448C13.3932 21.448 14.1663 20.8758 15.7125 19.7314C23.8303 13.7229 23.0339 6.60094 19.5146 4.44215Z" fill="#769488"/>
<path d="M19.5146 4.44215C16.8329 2.79723 14.4924 3.46011 13.0864 4.51601C12.5098 4.94896 12.2216 5.16543 12.052 5.16543C11.8824 5.16543 11.5942 4.94896 11.0176 4.51601C9.61162 3.46011 7.27109 2.79723 4.58944 4.44215C1.07007 6.60094 0.273722 13.7229 8.39153 19.7314C9.93772 20.8758 10.7108 21.448 12.052 21.448C13.3932 21.448 14.1663 20.8758 15.7125 19.7314C23.8303 13.7229 23.0339 6.60094 19.5146 4.44215Z" fill="#3F514A" stroke="#3F514A" stroke-width="1.5" stroke-linecap="round"/>
</svg>
