<svg width="25" height="25" viewBox="0 0 25 25" fill="none" xmlns="http://www.w3.org/2000/svg">
<path opacity="0.4" d="M2.45552 13.6615C2.1025 11.3642 1.92599 10.2156 2.3603 9.19738C2.7946 8.17912 3.75816 7.48243 5.68527 6.08906L7.12512 5.048C9.52242 3.31467 10.721 2.448 12.1041 2.448C13.4871 2.448 14.6858 3.31467 17.0831 5.048L18.5229 6.08906C20.4501 7.48243 21.4136 8.17912 21.8479 9.19738C22.2822 10.2156 22.1057 11.3642 21.7527 13.6615L21.4517 15.6204C20.9512 18.8769 20.701 20.5052 19.5331 21.4766C18.3652 22.448 16.6577 22.448 13.2429 22.448H10.9653C7.55047 22.448 5.84304 22.448 4.67513 21.4766C3.50722 20.5052 3.257 18.8769 2.75656 15.6204L2.45552 13.6615Z" fill="#A4B8B0"/>
<path d="M2.45552 13.6615C2.1025 11.3642 1.92599 10.2156 2.3603 9.19738C2.7946 8.17912 3.75816 7.48243 5.68527 6.08906L7.12512 5.048C9.52242 3.31467 10.721 2.448 12.1041 2.448C13.4871 2.448 14.6858 3.31467 17.0831 5.048L18.5229 6.08906C20.4501 7.48243 21.4136 8.17912 21.8479 9.19738C22.2822 10.2156 22.1057 11.3642 21.7527 13.6615L21.4517 15.6204C20.9512 18.8769 20.701 20.5052 19.5331 21.4766C18.3652 22.448 16.6577 22.448 13.2429 22.448H10.9653C7.55047 22.448 5.84304 22.448 4.67513 21.4766C3.50722 20.5052 3.257 18.8769 2.75656 15.6204L2.45552 13.6615Z" fill="#3F514A" stroke="#3F514A" stroke-width="1.5" stroke-linecap="round"/>
<path d="M15.1041 17.448C14.3046 18.0704 13.2543 18.448 12.1041 18.448C10.9538 18.448 9.90366 18.0704 9.10413 17.448" stroke="white" stroke-width="1.5" stroke-linecap="round"/>
</svg>
