<?xml version="1.0" standalone="no"?>
<!DOCTYPE svg PUBLIC "-//W3C//DTD SVG 20010904//EN"
 "http://www.w3.org/TR/2001/REC-SVG-20010904/DTD/svg10.dtd">
<svg version="1.0" xmlns="http://www.w3.org/2000/svg"
 width="712.000000pt" height="1080.000000pt" viewBox="0 0 712.000000 1080.000000"
 preserveAspectRatio="xMidYMid meet">

<g transform="translate(0.000000,1080.000000) scale(0.100000,-0.100000)"
fill="#000000" stroke="none">
<path d="M3410 10723 c1 -60 3 -74 11 -60 6 11 9 30 6 44 -3 16 2 32 14 44 27
27 24 49 -6 49 -25 0 -25 -1 -25 -77z"/>
<path d="M6060 10770 c0 -28 2 -30 28 -24 34 9 32 6 25 32 -3 15 -13 22 -29
22 -20 0 -24 -5 -24 -30z"/>
<path d="M6801 10784 c0 -11 3 -14 6 -6 3 7 2 16 -1 19 -3 4 -6 -2 -5 -13z"/>
<path d="M6781 10743 c-18 -20 -4 -31 15 -11 9 9 12 18 7 21 -4 3 -14 -2 -22
-10z"/>
<path d="M3445 10720 c-3 -5 -1 -10 4 -10 6 0 11 5 11 10 0 6 -2 10 -4 10 -3
0 -8 -4 -11 -10z"/>
<path d="M6050 10706 c0 -8 5 -18 10 -21 6 -3 10 3 10 14 0 12 -4 21 -10 21
-5 0 -10 -6 -10 -14z"/>
<path d="M5421 10671 c-1 -36 1 -41 13 -32 11 9 15 7 19 -9 5 -19 12 -21 89
-19 46 1 92 5 103 10 19 7 19 8 -2 8 -13 1 -23 4 -23 9 0 4 -21 6 -47 6 -27
-1 -54 4 -62 10 -7 5 -27 10 -44 11 -24 0 -33 5 -38 25 -6 20 -7 16 -8 -19z"/>
<path d="M4960 10549 c23 -22 36 -27 43 -20 8 8 5 11 -8 11 -15 0 -16 3 -7 12
19 19 15 23 -25 25 l-36 2 33 -30z"/>
<path d="M3400 10560 c0 -5 14 -10 32 -10 36 0 35 4 -4 14 -17 4 -28 2 -28 -4z"/>
<path d="M5193 10560 c-35 -14 -28 -20 22 -20 26 0 45 5 45 11 0 6 -7 8 -16 5
-8 -3 -12 -2 -9 4 7 12 -12 12 -42 0z"/>
<path d="M2030 10551 c0 -6 5 -13 10 -16 6 -3 10 1 10 9 0 9 -4 16 -10 16 -5
0 -10 -4 -10 -9z"/>
<path d="M2395 10550 c-45 -3 -64 -8 -54 -13 33 -16 149 -5 149 14 0 5 -6 8
-12 7 -7 -1 -44 -4 -83 -8z"/>
<path d="M5057 10543 c7 -17 56 -17 51 0 -3 6 -16 12 -30 12 -17 1 -24 -3 -21
-12z"/>
<path d="M3525 10541 c3 -5 -3 -12 -12 -14 -15 -4 -14 -5 3 -6 12 0 27 6 34
14 10 13 9 15 -9 15 -12 0 -20 -4 -16 -9z"/>
<path d="M2140 10510 c20 -13 33 -13 25 0 -3 6 -14 10 -23 10 -15 0 -15 -2 -2
-10z"/>
<path d="M1345 10499 c4 -5 22 -9 42 -9 45 0 40 5 -10 13 -22 3 -35 2 -32 -4z"/>
<path d="M4072 10465 c0 -16 2 -22 5 -12 2 9 2 23 0 30 -3 6 -5 -1 -5 -18z"/>
<path d="M5395 10457 c-19 -11 -19 -13 -4 -29 16 -15 17 -14 21 13 3 16 4 29
4 28 -1 -1 -10 -6 -21 -12z"/>
<path d="M2710 10388 c0 -7 4 -19 9 -27 11 -17 25 3 17 24 -7 18 -26 20 -26 3z"/>
<path d="M5221 10196 c27 -28 36 -27 19 3 -6 12 -18 21 -26 21 -13 0 -11 -5 7
-24z"/>
<path d="M5120 10201 c0 -5 -3 -16 -6 -25 -5 -12 0 -16 20 -16 21 0 25 4 24
25 -2 17 -8 25 -20 25 -10 0 -18 -4 -18 -9z"/>
<path d="M4538 10193 c7 -3 16 -2 19 1 4 3 -2 6 -13 5 -11 0 -14 -3 -6 -6z"/>
<path d="M5435 10190 c-4 -6 3 -10 14 -10 25 0 27 6 6 13 -8 4 -17 2 -20 -3z"/>
<path d="M2711 10134 c-7 -8 -11 -18 -7 -21 9 -10 36 6 36 22 0 19 -11 19 -29
-1z"/>
<path d="M2230 10052 c0 -5 7 -13 16 -16 10 -4 14 -1 12 6 -5 15 -28 23 -28
10z"/>
<path d="M6216 10005 c-3 -8 -1 -25 4 -37 8 -20 9 -18 9 15 1 39 -3 47 -13 22z"/>
<path d="M4851 9924 c0 -11 3 -14 6 -6 3 7 2 16 -1 19 -3 4 -6 -2 -5 -13z"/>
<path d="M1490 9621 c0 -19 23 -35 34 -24 11 11 6 22 -14 33 -17 9 -20 8 -20
-9z"/>
<path d="M1506 9528 c-9 -35 -7 -68 4 -68 6 0 10 20 10 45 0 50 -4 57 -14 23z"/>
<path d="M4012 9446 c-29 -6 -51 -14 -47 -18 7 -7 81 9 104 22 19 11 12 11
-57 -4z"/>
<path d="M3830 9410 c0 -5 5 -10 11 -10 5 0 7 5 4 10 -3 6 -8 10 -11 10 -2 0
-4 -4 -4 -10z"/>
<path d="M6923 9403 c-49 -3 -63 -7 -63 -20 0 -11 6 -14 23 -9 12 3 34 6 48 6
14 0 34 7 45 15 10 8 17 14 14 13 -3 -1 -33 -3 -67 -5z"/>
<path d="M6630 9380 c-8 -5 -12 -12 -9 -15 4 -3 12 1 19 10 14 17 11 19 -10 5z"/>
<path d="M3160 9204 c0 -10 -6 -14 -15 -10 -13 4 -15 -8 -15 -75 0 -72 2 -80
17 -75 9 4 20 1 25 -6 5 -8 7 28 6 85 -1 53 -6 97 -10 97 -5 0 -8 -7 -8 -16z"/>
<path d="M3820 9190 c0 -5 5 -10 10 -10 6 0 10 5 10 10 0 6 -4 10 -10 10 -5 0
-10 -4 -10 -10z"/>
<path d="M5835 8980 c-4 -6 7 -10 25 -10 18 0 29 4 25 10 -3 6 -15 10 -25 10
-10 0 -22 -4 -25 -10z"/>
<path d="M3908 8963 c6 -2 18 -2 25 0 6 3 1 5 -13 5 -14 0 -19 -2 -12 -5z"/>
<path d="M1451 8956 c12 -10 59 -15 59 -6 0 5 -14 10 -32 10 -17 0 -29 -2 -27
-4z"/>
<path d="M1243 8935 c5 -16 68 -16 122 -1 l50 15 -87 -2 c-53 -1 -87 -6 -85
-12z"/>
<path d="M3520 8700 c0 -11 5 -20 10 -20 6 0 10 9 10 20 0 11 -4 20 -10 20 -5
0 -10 -9 -10 -20z"/>
<path d="M3710 8619 c-807 -21 -1114 -30 -1123 -36 -6 -4 -8 -80 -5 -203 3
-109 2 -203 -2 -210 -4 -6 -16 -11 -26 -10 -31 4 -44 1 -44 -10 0 -7 13 -8 35
-4 27 5 36 3 41 -10 3 -9 1 -23 -5 -30 -7 -8 -8 -17 -3 -20 5 -3 12 -142 15
-308 20 -896 28 -1232 33 -1316 l6 -93 71 3 c68 3 72 4 70 26 -3 25 0 27 19
10 29 -27 60 -38 107 -38 28 0 53 5 56 11 4 6 14 8 22 5 18 -7 43 17 43 42 0
24 -46 50 -62 34 -8 -8 -17 -8 -31 0 -24 13 -149 6 -154 -9 -3 -8 -11 -7 -28
1 -30 14 -32 30 -45 641 -23 1045 -29 1390 -22 1396 8 8 611 27 1143 36 l367
6 6 -234 c7 -280 14 -612 21 -999 3 -157 8 -400 11 -541 l6 -256 -32 -7 c-18
-3 -56 -6 -85 -6 -49 0 -56 -3 -94 -42 l-41 -43 147 -3 c199 -4 193 -6 193 68
0 59 4 65 38 61 6 -1 12 3 12 9 0 5 -11 10 -25 10 l-25 0 0 113 c0 116 -1 152
-25 1190 -8 345 -15 661 -15 702 l0 75 -142 -2 c-79 -1 -271 -5 -428 -9z
m-740 -2178 c0 -14 -18 -23 -31 -15 -8 4 -7 9 2 15 18 11 29 11 29 0z"/>
<path d="M5843 8580 c31 -15 43 -17 63 -8 40 19 27 28 -38 28 l-63 -1 38 -19z"/>
<path d="M4890 8580 c0 -5 5 -10 11 -10 5 0 7 5 4 10 -3 6 -8 10 -11 10 -2 0
-4 -4 -4 -10z"/>
<path d="M5807 8569 c7 -7 15 -10 18 -7 3 3 -2 9 -12 12 -14 6 -15 5 -6 -5z"/>
<path d="M4910 8550 c0 -5 10 -10 23 -10 18 0 19 2 7 10 -19 13 -30 13 -30 0z"/>
<path d="M5624 8533 c-10 -17 -44 -18 -407 -23 -217 -3 -398 -8 -402 -11 -3
-4 -9 -78 -13 -165 l-7 -159 -48 -10 c-43 -9 -45 -11 -27 -23 11 -6 31 -12 45
-12 14 0 25 -4 25 -10 0 -5 -7 -10 -15 -10 -9 0 -15 -9 -15 -22 0 -21 0 -21
-22 -2 -21 19 -21 19 -16 -4 4 -13 2 -20 -3 -16 -18 11 3 -100 22 -121 19 -19
19 -18 19 48 0 61 2 67 21 67 20 0 21 -4 19 -177 -1 -98 -1 -250 -1 -338 1
-131 -2 -161 -14 -168 -12 -6 -13 -13 -5 -28 6 -11 10 -27 9 -37 -1 -9 1 -25
5 -34 5 -10 9 -88 9 -175 l2 -158 -37 -3 c-21 -2 -38 -8 -38 -14 0 -7 13 -8
36 -5 39 7 56 -12 34 -38 -8 -10 -9 -19 -3 -27 5 -7 9 -38 9 -68 -1 -49 -4
-55 -26 -60 -20 -5 -22 -8 -10 -16 35 -22 40 -51 40 -249 l0 -195 38 0 c32 0
41 -5 51 -26 6 -15 14 -24 17 -21 3 3 1 15 -6 26 l-11 21 448 2 c246 1 466 2
488 3 59 0 66 -3 58 -34 -6 -23 -5 -25 10 -12 10 7 17 19 17 26 0 9 37 14 138
17 75 3 138 2 140 -2 1 -4 14 -5 28 -2 15 3 32 -2 44 -13 19 -17 20 -17 20 3
0 21 4 22 115 22 l115 0 0 116 c0 88 3 115 12 112 7 -3 13 -13 13 -23 0 -10 6
-20 13 -22 6 -3 12 2 12 10 0 8 9 17 19 20 15 4 19 12 17 33 -2 16 -9 29 -17
30 -8 0 -27 2 -43 2 l-29 2 6 363 c4 199 7 374 7 389 0 20 4 26 15 22 8 -4 22
-1 30 6 19 16 2 40 -26 40 -18 0 -19 17 -19 493 0 272 -3 528 -6 570 l-7 77
-407 0 c-342 0 -409 2 -426 15 -26 19 -47 19 -60 -2z m801 -1131 c0 -889 -2
-1014 -15 -1022 -9 -6 -307 -10 -756 -10 l-741 0 -6 473 c-4 259 -7 718 -7
1019 l0 548 203 2 c111 2 454 3 762 3 l560 0 0 -1013z"/>
<path d="M5295 8090 c3 -5 11 -10 16 -10 6 0 7 5 4 10 -3 6 -11 10 -16 10 -6
0 -7 -4 -4 -10z"/>
<path d="M5387 8031 c3 -12 9 -21 14 -21 14 0 11 16 -5 29 -12 10 -13 8 -9 -8z"/>
<path d="M5253 7967 c-49 -18 -50 -27 -5 -27 23 0 42 2 42 4 0 2 3 11 6 20 7
18 1 19 -43 3z"/>
<path d="M5581 7884 c0 -11 3 -14 6 -6 3 7 2 16 -1 19 -3 4 -6 -2 -5 -13z"/>
<path d="M5574 7849 c-2 -4 1 -20 7 -36 l11 -28 24 28 c13 15 24 32 24 36 0
10 -59 10 -66 0z"/>
<path d="M5434 7779 c21 -13 76 -18 76 -8 0 11 -28 19 -63 19 -28 -1 -30 -2
-13 -11z"/>
<path d="M5760 7736 c0 -13 8 -38 17 -54 17 -29 16 -30 -10 -61 -23 -28 -37
-71 -22 -71 10 0 52 76 57 105 4 19 -1 43 -13 67 -23 44 -29 47 -29 14z"/>
<path d="M5743 7693 c4 -3 1 -13 -6 -22 -11 -14 -10 -14 5 -2 16 12 16 31 1
31 -4 0 -3 -3 0 -7z"/>
<path d="M5480 7498 c0 -50 5 -63 43 -119 35 -53 49 -65 85 -76 35 -10 42 -9
42 2 0 8 -9 19 -20 25 -16 9 -18 8 -14 -5 4 -8 2 -15 -3 -15 -11 0 -37 30 -46
54 -4 9 -11 15 -16 12 -5 -3 -11 3 -14 15 -5 17 -3 18 10 7 14 -12 15 -11 5 9
-7 12 -12 34 -12 50 0 16 -13 43 -30 63 l-29 35 -1 -57z m41 -20 c11 -21 11
-22 -4 -9 -10 7 -17 17 -17 22 0 15 9 10 21 -13z"/>
<path d="M5797 7536 c-15 -12 -17 -26 -15 -89 l3 -76 38 37 c28 27 37 44 37
69 0 24 -4 33 -17 33 -13 0 -14 3 -5 12 28 28 -7 40 -41 14z"/>
<path d="M5565 7510 c-3 -5 -3 -10 2 -10 4 0 1 -4 -6 -9 -16 -10 -4 -15 74
-25 l39 -5 -31 18 c-17 11 -34 24 -37 30 -9 14 -33 14 -41 1z"/>
<path d="M6040 7493 c0 -6 -12 -25 -26 -42 -21 -25 -23 -31 -9 -31 23 0 9 -17
-30 -36 -42 -20 -58 -49 -17 -32 41 17 104 80 90 89 -9 6 -9 11 0 21 7 9 8 19
2 28 -6 9 -10 10 -10 3z"/>
<path d="M5827 7355 c-22 -16 -11 -25 30 -25 25 0 33 4 33 18 0 21 -38 25 -63
7z"/>
<path d="M5436 7293 c12 -53 87 -163 110 -163 23 0 16 33 -11 55 -14 11 -37
44 -53 74 -31 62 -57 81 -46 34z"/>
<path d="M5920 7258 c-16 -14 -19 -19 -7 -15 14 5 16 3 8 -11 -21 -35 -47 -63
-62 -65 -9 -2 -29 -11 -45 -22 -71 -48 -136 -72 -119 -45 3 6 2 10 -2 10 -5 0
-14 -9 -20 -19 -11 -18 -9 -20 32 -27 51 -7 111 1 121 18 4 7 3 8 -5 4 -18
-11 -41 1 -35 18 5 14 39 32 117 64 44 19 90 113 55 112 -7 -1 -24 -10 -38
-22z"/>
<path d="M5244 7247 c-6 -16 14 -63 23 -54 2 3 -1 16 -8 29 l-12 23 28 -25
c16 -14 25 -19 21 -12 -5 8 0 12 16 13 20 1 20 2 3 6 -10 3 -29 12 -42 20 -20
14 -23 13 -29 0z"/>
<path d="M5696 7233 c-6 -14 -5 -15 5 -6 7 7 10 15 7 18 -3 3 -9 -2 -12 -12z"/>
<path d="M5313 7137 c27 -33 32 -36 38 -20 7 21 -26 58 -52 58 -13 1 -9 -8 14
-38z"/>
<path d="M5398 7143 c7 -3 16 -2 19 1 4 3 -2 6 -13 5 -11 0 -14 -3 -6 -6z"/>
<path d="M5418 7115 c-6 -12 -3 -63 4 -70 3 -4 20 -2 38 2 l32 8 -22 28 c-12
15 -25 25 -30 22 -5 -3 -10 0 -12 7 -3 7 -7 8 -10 3z"/>
<path d="M5902 7025 c-48 -39 -41 -54 15 -28 25 12 39 26 41 41 4 29 -5 27
-56 -13z"/>
<path d="M5541 6995 c-29 -33 -36 -45 -28 -45 2 0 18 18 36 40 40 49 34 53 -8
5z"/>
<path d="M5604 6960 c-12 -5 -25 -13 -28 -19 -11 -17 55 -43 124 -48 61 -5 64
-4 45 11 -11 8 -35 16 -52 16 -31 0 -39 10 -34 43 1 9 -28 8 -55 -3z"/>
<path d="M5748 6963 c6 -2 18 -2 25 0 6 3 1 5 -13 5 -14 0 -19 -2 -12 -5z"/>
<path d="M5486 6913 c-6 -14 -5 -15 5 -6 7 7 10 15 7 18 -3 3 -9 -2 -12 -12z"/>
<path d="M5390 6641 c0 -12 5 -21 10 -21 6 0 10 6 10 14 0 8 -4 18 -10 21 -5
3 -10 -3 -10 -14z"/>
<path d="M1437 8353 c-2 -4 -1 -17 3 -27 6 -19 7 -19 14 -1 7 19 -8 44 -17 28z"/>
<path d="M6840 8201 c0 -6 5 -11 11 -11 6 0 9 -7 5 -15 -4 -12 6 -15 60 -15
48 0 65 3 61 13 -2 7 -23 12 -54 12 -28 1 -58 7 -67 14 -11 9 -16 10 -16 2z"/>
<path d="M4586 8151 c-7 -11 31 -22 50 -14 8 3 14 9 14 14 0 12 -57 12 -64 0z"/>
<path d="M2520 8105 c-23 -25 -23 -25 -2 -25 12 0 26 9 32 19 16 30 -4 33 -30
6z"/>
<path d="M3500 8018 c-14 -6 -40 -17 -58 -25 -75 -33 -145 -120 -157 -198 -12
-77 -14 -81 -50 -94 -45 -16 -127 -95 -154 -150 -93 -180 0 -426 197 -522 62
-31 74 -33 172 -34 99 0 109 2 174 34 89 43 158 112 199 199 l32 67 3 252 c3
232 1 257 -16 297 -37 81 -93 130 -205 175 -35 14 -104 13 -137 -1z m169 -165
c58 -44 63 -70 59 -312 -3 -205 -4 -218 -27 -261 -29 -55 -90 -115 -139 -137
-23 -10 -66 -16 -113 -17 -71 -1 -80 2 -134 35 -83 52 -128 126 -133 220 -5
79 6 114 48 154 33 31 50 26 50 -15 0 -40 17 -80 48 -114 107 -114 291 -40
292 118 0 94 -71 186 -156 202 -51 9 -59 25 -35 72 21 41 60 75 96 85 39 10
110 -5 144 -30z m-171 -290 c16 -22 15 -34 -4 -61 -42 -60 -117 17 -88 92 5
14 10 14 42 0 21 -8 43 -22 50 -31z"/>
<path d="M2110 7925 c0 -14 5 -25 10 -25 6 0 10 4 10 9 0 5 3 16 6 25 4 11 1
16 -10 16 -10 0 -16 -9 -16 -25z"/>
<path d="M4685 7780 c-18 -8 -17 -9 8 -9 15 -1 27 4 27 9 0 12 -8 12 -35 0z"/>
<path d="M4760 7770 c0 -5 5 -10 11 -10 5 0 7 5 4 10 -3 6 -8 10 -11 10 -2 0
-4 -4 -4 -10z"/>
<path d="M1395 7739 c-33 -5 -71 -11 -84 -14 -22 -6 -23 -7 -8 -22 15 -15 20
-15 66 6 42 20 54 22 81 12 28 -9 31 -9 26 5 -3 9 -6 18 -6 20 0 2 -3 3 -7 3
-5 -1 -35 -5 -68 -10z"/>
<path d="M1090 7719 c0 -5 5 -7 10 -4 6 3 10 8 10 11 0 2 -4 4 -10 4 -5 0 -10
-5 -10 -11z"/>
<path d="M2258 7723 c7 -3 16 -2 19 1 4 3 -2 6 -13 5 -11 0 -14 -3 -6 -6z"/>
<path d="M2103 7703 c9 -2 25 -2 35 0 9 3 1 5 -18 5 -19 0 -27 -2 -17 -5z"/>
<path d="M4730 7660 c0 -5 7 -10 16 -10 8 0 12 5 9 10 -3 6 -10 10 -16 10 -5
0 -9 -4 -9 -10z"/>
<path d="M6980 7607 c0 -31 0 -60 -1 -64 0 -4 4 -9 9 -11 10 -3 10 113 0 124
-5 4 -8 -18 -8 -49z"/>
<path d="M2220 7548 c0 -48 7 -78 19 -78 11 0 5 100 -8 113 -8 8 -11 -1 -11
-35z"/>
<path d="M7003 7465 c0 -22 2 -30 4 -17 2 12 2 30 0 40 -3 9 -5 -1 -4 -23z"/>
<path d="M1601 7414 c0 -11 3 -14 6 -6 3 7 2 16 -1 19 -3 4 -6 -2 -5 -13z"/>
<path d="M6758 7373 c7 -3 16 -2 19 1 4 3 -2 6 -13 5 -11 0 -14 -3 -6 -6z"/>
<path d="M1673 7328 c2 -7 10 -13 17 -13 7 0 15 6 18 13 2 7 -5 12 -18 12 -13
0 -20 -5 -17 -12z"/>
<path d="M1790 7330 c0 -5 5 -10 10 -10 6 0 10 5 10 10 0 6 -4 10 -10 10 -5 0
-10 -4 -10 -10z"/>
<path d="M1860 7300 c0 -5 5 -10 10 -10 6 0 10 5 10 10 0 6 -4 10 -10 10 -5 0
-10 -4 -10 -10z"/>
<path d="M4500 7260 c0 -5 5 -10 11 -10 5 0 7 5 4 10 -3 6 -8 10 -11 10 -2 0
-4 -4 -4 -10z"/>
<path d="M1230 6920 c-13 -8 -12 -10 3 -10 9 0 17 5 17 10 0 12 -1 12 -20 0z"/>
<path d="M1325 6920 c3 -5 8 -10 11 -10 2 0 4 5 4 10 0 6 -5 10 -11 10 -5 0
-7 -4 -4 -10z"/>
<path d="M1110 6910 c0 -5 13 -10 29 -10 17 0 33 5 36 10 4 6 -8 10 -29 10
-20 0 -36 -4 -36 -10z"/>
<path d="M3086 6875 c-3 -8 -1 -15 4 -15 6 0 10 7 10 15 0 8 -2 15 -4 15 -2 0
-6 -7 -10 -15z"/>
<path d="M4729 6859 c-11 -61 -9 -66 21 -61 24 3 28 7 20 21 -9 18 -39 47 -41
40z"/>
<path d="M6750 6789 c0 -28 1 -28 20 -12 11 10 20 20 20 24 0 4 -9 9 -20 12
-17 4 -20 0 -20 -24z"/>
<path d="M6825 6810 c3 -5 8 -10 11 -10 2 0 4 5 4 10 0 6 -5 10 -11 10 -5 0
-7 -4 -4 -10z"/>
<path d="M1495 6718 c4 -29 13 -60 21 -68 12 -12 14 -9 14 22 0 57 -11 98 -27
98 -12 0 -14 -10 -8 -52z"/>
<path d="M4715 6730 c-4 -17 -5 -34 -2 -36 3 -3 8 9 12 26 4 17 5 34 2 36 -3
3 -8 -9 -12 -26z"/>
<path d="M2153 6718 c13 -83 22 -94 31 -37 4 26 2 46 -5 55 -20 24 -31 16 -26
-18z"/>
<path d="M6826 6663 c-8 -26 -17 -28 -34 -11 -17 17 -26 3 -18 -27 13 -51 77
-22 66 30 -6 28 -6 29 -14 8z"/>
<path d="M1480 6600 c0 -5 5 -10 10 -10 6 0 10 5 10 10 0 6 -4 10 -10 10 -5 0
-10 -4 -10 -10z"/>
<path d="M6910 6570 c0 -6 12 -10 27 -10 29 0 24 12 -7 17 -11 2 -20 -2 -20
-7z"/>
<path d="M1778 6543 c7 -3 16 -2 19 1 4 3 -2 6 -13 5 -11 0 -14 -3 -6 -6z"/>
<path d="M2134 6523 c3 -19 1 -33 -4 -33 -6 0 -10 -4 -10 -10 0 -5 5 -10 11
-10 6 0 19 -10 30 -22 16 -20 18 -21 19 -5 0 10 -7 20 -16 24 -8 3 -13 11 -11
17 2 6 -2 25 -10 41 l-14 30 5 -32z"/>
<path d="M1240 6520 c-70 -4 -79 -7 -50 -13 19 -4 89 -8 155 -9 107 -3 120 -1
123 15 3 15 -5 17 -70 15 -40 -1 -111 -4 -158 -8z"/>
<path d="M1042 6513 c-28 -3 -42 -9 -39 -16 2 -7 11 -12 20 -12 8 0 19 -4 23
-8 12 -12 24 -8 24 8 0 10 10 14 33 12 17 -1 34 3 37 8 6 11 -32 14 -98 8z"/>
<path d="M1520 6491 c0 -4 11 -20 25 -35 13 -14 22 -26 19 -26 -3 0 6 -10 20
-23 14 -13 30 -44 36 -69 9 -35 21 -53 45 -70 19 -12 31 -27 28 -32 -3 -5 -2
-6 4 -3 14 9 9 55 -13 107 -22 55 -26 60 -92 115 -53 44 -72 54 -72 36z"/>
<path d="M4470 6491 c0 -5 5 -13 10 -16 6 -3 10 -2 10 4 0 5 -4 13 -10 16 -5
3 -10 2 -10 -4z"/>
<path d="M2480 6479 c0 -5 5 -7 10 -4 6 3 10 8 10 11 0 2 -4 4 -10 4 -5 0 -10
-5 -10 -11z"/>
<path d="M3640 6480 c-118 -4 -216 -7 -217 -8 -1 -1 0 -8 3 -16 3 -7 -2 -21
-12 -30 -36 -37 -6 -41 244 -38 l237 4 62 41 c34 23 63 45 63 50 0 7 -20 7
-380 -3z"/>
<path d="M6648 6483 c-31 -8 -20 -18 23 -21 37 -2 40 -1 26 13 -16 15 -19 16
-49 8z"/>
<path d="M3144 6425 c-2 -55 14 -59 40 -11 21 39 15 56 -17 56 -19 0 -22 -6
-23 -45z"/>
<path d="M3300 6464 c0 -7 27 -34 34 -34 4 0 1 9 -6 20 -12 19 -28 27 -28 14z"/>
<path d="M4728 6463 c6 -2 18 -2 25 0 6 3 1 5 -13 5 -14 0 -19 -2 -12 -5z"/>
<path d="M2190 6411 c0 -12 5 -21 10 -21 6 0 10 6 10 14 0 8 -4 18 -10 21 -5
3 -10 -3 -10 -14z"/>
<path d="M2250 6351 c0 -7 -6 -9 -12 -6 -7 4 -4 -1 7 -10 22 -17 36 -2 16 18
-8 8 -11 8 -11 -2z"/>
<path d="M3020 6349 c0 -5 5 -7 10 -4 6 3 10 8 10 11 0 2 -4 4 -10 4 -5 0 -10
-5 -10 -11z"/>
<path d="M3047 6323 c-11 -10 -8 -43 3 -43 6 0 10 11 10 25 0 26 -2 29 -13 18z"/>
<path d="M1738 6308 c6 -6 18 -8 28 -6 14 3 12 5 -9 10 -19 3 -25 2 -19 -4z"/>
<path d="M3080 6281 c0 -11 5 -23 10 -26 6 -3 10 3 10 14 0 11 -4 23 -10 26
-5 3 -10 -3 -10 -14z"/>
<path d="M1445 6230 c3 -5 -1 -10 -9 -10 -9 0 -16 -4 -16 -9 0 -10 64 -27 134
-36 45 -6 49 -5 37 9 -7 9 -17 13 -22 10 -11 -6 -109 28 -109 38 0 5 -5 8 -11
8 -5 0 -7 -4 -4 -10z"/>
<path d="M2250 6221 c0 -11 5 -23 10 -26 6 -3 10 3 10 14 0 11 -4 23 -10 26
-5 3 -10 -3 -10 -14z"/>
<path d="M1705 6219 c-4 -6 -4 -13 -1 -16 3 -4 6 -1 6 5 0 7 5 12 11 12 6 0 8
-7 5 -16 -4 -12 -2 -15 9 -10 12 4 13 2 6 -13 -6 -10 -7 -22 -3 -27 4 -5 0 -3
-8 3 -13 10 -16 8 -17 -7 -1 -12 10 -24 30 -34 18 -8 41 -31 52 -53 11 -21 38
-55 60 -75 34 -31 41 -34 46 -20 4 9 1 20 -5 25 -8 5 -6 10 4 17 12 9 12 10
-5 8 -14 -2 -21 3 -23 20 -2 12 -8 20 -13 16 -5 -3 -6 -10 -3 -16 4 -6 1 -9
-7 -6 -8 2 -15 21 -17 41 -2 20 -7 37 -13 37 -5 0 -9 6 -9 14 0 8 -5 18 -10
21 -6 4 -9 1 -8 -6 2 -6 -2 -13 -8 -16 -7 -2 -10 8 -9 27 1 16 -2 30 -7 30 -4
0 -8 9 -8 19 0 27 -42 42 -55 20z"/>
<path d="M3086 6217 c3 -10 9 -15 12 -12 3 3 0 11 -7 18 -10 9 -11 8 -5 -6z"/>
<path d="M3137 6185 c-4 -9 -18 -15 -36 -15 -27 0 -29 -3 -29 -35 0 -22 7 -40
17 -48 10 -6 26 -25 35 -42 10 -16 15 -22 12 -12 -3 9 -1 17 4 17 6 0 10 7 10
16 0 8 -5 12 -10 9 -6 -4 -17 -1 -25 5 -11 9 -12 16 -2 31 16 25 37 24 37 -2
0 -11 4 -17 10 -14 6 4 8 16 4 28 -4 12 -8 33 -10 45 -3 30 -10 37 -17 17z"/>
<path d="M1650 6160 c-12 -8 -12 -10 3 -16 21 -8 35 2 21 16 -5 5 -15 6 -24 0z"/>
<path d="M3515 6138 c-6 -17 -1 -45 10 -55 4 -4 5 2 2 15 -4 19 -2 22 13 17
17 -5 35 17 23 29 -11 11 -44 6 -48 -6z"/>
<path d="M2984 6115 c-8 -13 -13 -29 -9 -35 11 -17 -4 -60 -20 -60 -8 0 -15
-8 -16 -17 0 -13 -3 -11 -12 7 l-11 25 -4 -32 c-2 -20 -11 -37 -22 -43 -15 -8
-18 -7 -15 2 4 9 -5 14 -26 15 -23 2 -28 -1 -21 -10 16 -20 23 -65 11 -72 -6
-4 -16 1 -24 11 -16 22 -18 17 -31 -51 l-7 -40 -7 30 c-6 25 -15 18 -11 -8 1
-5 -3 -6 -8 -3 -5 3 -17 3 -26 -1 -16 -5 -15 -8 6 -25 13 -11 19 -17 13 -14
-7 3 -15 -1 -18 -10 -3 -8 -11 -12 -16 -9 -8 5 -7 11 1 21 16 19 -10 19 -37
-1 -25 -19 -32 -19 -39 4 -3 12 -12 18 -20 15 -7 -3 -25 2 -38 11 -18 12 -27
13 -32 4 -5 -7 -10 -8 -14 -1 -4 6 -15 3 -30 -9 -23 -19 -23 -20 -5 -34 18
-15 18 -16 -5 -35 -17 -15 -27 -18 -35 -10 -16 16 -44 12 -51 -9 -5 -16 -31
-30 -57 -31 -16 0 -7 24 23 57 37 43 27 60 -21 35 -27 -13 -34 -23 -32 -40 2
-12 -1 -22 -6 -22 -5 0 -8 -11 -7 -25 4 -33 -7 -32 -22 2 -15 32 -17 46 -4 39
18 -11 20 24 2 36 -10 7 -21 27 -25 44 -5 21 -15 34 -29 38 -32 8 -39 7 -31
-6 4 -7 3 -8 -4 -4 -17 10 -15 36 2 36 8 0 18 4 21 10 4 6 -2 7 -17 1 -29 -10
-89 3 -100 23 -6 11 -23 16 -53 16 -38 0 -45 -3 -45 -20 0 -11 6 -20 14 -20 7
0 16 -10 19 -21 4 -14 11 -20 20 -16 9 3 30 -10 52 -33 30 -31 37 -44 33 -67
-4 -27 -2 -29 20 -25 14 3 28 -1 33 -9 6 -10 9 -6 9 14 0 42 33 31 38 -13 9
-79 9 -131 -2 -127 -6 2 -12 23 -14 46 -2 27 -7 41 -15 38 -12 -4 -12 -39 0
-67 3 -8 7 -19 7 -25 1 -5 9 -27 18 -47 13 -29 21 -36 35 -32 13 4 15 3 5 -4
-8 -5 -13 -12 -13 -16 3 -20 -1 -26 -14 -26 -18 0 -21 -50 -2 -50 7 0 4 -7 -7
-15 -17 -13 -17 -15 -3 -21 9 -3 15 -10 12 -14 -8 -13 13 -22 51 -22 19 0 34
-4 34 -10 0 -5 9 -21 20 -35 23 -30 25 -43 6 -43 -7 0 -16 9 -19 21 -3 12 -10
18 -15 15 -5 -3 -15 6 -22 19 -8 15 -22 25 -34 25 -12 0 -29 9 -39 20 -9 11
-26 20 -38 20 -16 0 -20 5 -16 20 3 10 0 21 -7 24 -6 2 -5 5 4 5 19 1 -46 61
-66 61 -21 0 -17 10 12 32 15 13 23 26 19 36 -3 8 0 19 6 23 19 12 -11 34 -50
36 -18 1 -39 10 -47 20 -13 17 -13 17 -14 1 0 -24 -16 -23 -23 2 -3 11 -2 18
3 15 14 -8 75 19 75 34 0 8 -28 29 -62 47 -47 24 -58 34 -45 39 16 6 16 7 -2
20 -10 8 -15 18 -11 24 3 6 0 9 -8 5 -8 -3 -20 2 -27 11 -17 20 -40 2 -33 -27
5 -17 3 -19 -16 -13 -11 3 -21 2 -21 -3 0 -15 26 -22 38 -10 18 18 42 -10 40
-43 -1 -16 -6 -29 -10 -29 -4 0 -8 -7 -8 -16 0 -9 6 -14 12 -12 15 5 43 -20
34 -29 -3 -4 1 -17 10 -31 8 -13 13 -30 10 -38 -3 -8 1 -17 9 -20 8 -4 15 -13
15 -21 0 -7 11 -25 25 -39 26 -26 32 -44 15 -44 -5 0 -28 31 -51 70 -22 38
-45 68 -49 65 -5 -3 -11 1 -13 7 -4 10 -6 10 -6 0 -1 -7 -14 1 -30 19 -16 17
-34 29 -39 25 -6 -3 -18 1 -26 10 -15 14 -16 13 -16 -10 0 -14 4 -26 9 -26 6
0 22 -11 37 -25 15 -14 31 -25 35 -25 5 0 9 -6 9 -12 1 -7 16 -25 35 -39 l34
-26 -24 -13 -24 -13 33 -22 c18 -12 39 -25 47 -28 10 -4 9 -6 -4 -6 -15 -1
-16 -4 -5 -23 7 -13 11 -29 10 -35 -2 -8 7 -13 20 -13 22 -1 22 -1 4 -15 -18
-13 -17 -14 8 -21 36 -9 33 -23 -5 -19 -26 4 -29 2 -19 -10 7 -8 20 -15 29
-15 9 0 25 -7 35 -15 18 -14 16 -19 -9 -16 -5 0 -1 -5 9 -12 11 -6 27 -19 36
-28 9 -8 21 -14 27 -12 14 5 5 -39 -10 -48 -5 -4 0 -10 12 -14 12 -3 19 -11
16 -16 -4 -5 0 -9 7 -9 7 0 19 -9 26 -20 11 -18 10 -20 -8 -20 -11 0 -20 -4
-20 -10 0 -5 5 -10 10 -10 6 0 10 -6 10 -12 0 -7 -11 -13 -25 -13 -14 0 -25 4
-25 8 0 5 -4 5 -10 2 -22 -14 15 -45 62 -51 34 -5 49 -12 53 -25 4 -11 22 -40
41 -64 19 -25 34 -53 34 -63 0 -11 11 -24 25 -30 14 -6 25 -15 26 -19 4 -41
35 -92 56 -93 7 0 17 -8 22 -17 6 -10 11 -13 11 -8 0 6 -5 16 -12 23 -6 6 -9
14 -5 18 10 10 27 -6 27 -27 0 -10 5 -19 10 -19 15 0 12 22 -6 59 -9 17 -17
37 -18 44 -2 7 -6 23 -10 37 -3 14 -8 48 -10 75 -3 44 -2 47 8 24 6 -14 17
-24 23 -22 7 3 16 -2 19 -11 3 -9 11 -16 16 -16 9 0 8 13 -8 75 -4 16 -3 17 5
5 8 -12 11 -11 17 5 4 11 10 22 14 25 3 3 11 16 17 30 l11 25 10 -25 c10 -24
11 -24 11 -2 1 13 7 22 16 22 15 0 19 -10 16 -45 -2 -15 3 -12 18 13 12 17 26
32 33 32 6 0 1 11 -12 25 -13 14 -20 28 -16 32 4 4 11 1 15 -6 5 -7 13 -11 18
-8 10 6 11 0 14 -48 1 -25 17 -46 16 -22 0 6 1 20 1 31 3 36 30 -3 37 -55 4
-27 13 -56 21 -64 16 -16 19 -55 3 -55 -6 0 -9 -10 -7 -22 2 -18 8 -22 27 -20
20 3 23 0 18 -17 -3 -12 -1 -24 4 -27 9 -5 12 8 13 65 1 19 7 36 14 39 7 2 13
-2 11 -9 -1 -8 -1 -24 0 -37 2 -39 21 -13 21 29 0 21 4 39 9 39 5 0 7 -10 4
-22 -4 -20 -3 -21 7 -6 8 13 8 24 0 37 -12 24 -13 34 -1 27 5 -4 7 7 5 24 -3
19 -1 30 6 30 8 0 9 11 5 32 -6 26 -5 30 9 25 13 -5 16 1 16 33 0 21 5 42 10
45 6 3 10 -4 10 -16 0 -35 22 -7 26 33 9 82 23 140 33 133 11 -6 43 34 35 46
-3 5 -1 16 5 23 12 14 5 46 -10 46 -5 0 -9 7 -9 16 0 11 5 14 16 10 13 -5 15
-1 10 18 -5 19 -1 26 14 31 14 4 20 15 20 35 0 16 7 30 16 34 10 4 13 13 9 26
-5 15 0 22 19 30 17 6 24 14 20 25 -4 8 1 17 10 21 9 3 16 15 16 26 0 11 12
35 26 53 25 34 25 55 0 55 -11 0 -14 32 -5 50 3 8 7 24 8 41 0 9 13 28 27 43
15 14 21 26 15 26 -18 0 -81 -67 -81 -87 0 -10 -12 -31 -26 -48 -14 -16 -22
-24 -19 -17 4 8 -1 20 -14 28 -29 21 -26 42 7 50 15 4 30 12 34 18 12 17 9 38
-3 30 -6 -3 -15 0 -20 7 -6 10 -9 11 -9 2 0 -24 -40 -14 -50 12 -11 30 -30 33
-30 5 0 -11 -6 -20 -13 -20 -8 0 -14 6 -14 13 0 6 -3 21 -7 33 -4 14 0 26 13
38 11 10 17 24 15 31 -3 7 2 15 12 19 13 5 15 2 9 -11 -4 -10 -9 -27 -10 -39
-2 -17 2 -20 25 -16 19 3 35 -3 49 -17 l21 -21 20 20 c22 22 19 25 -11 9 -18
-9 -19 -7 -13 15 4 19 1 26 -17 31 -14 5 -25 3 -27 -4 -2 -6 -8 -11 -13 -11
-5 0 -4 11 1 25 7 19 6 25 -5 25 -8 0 -19 10 -26 21 -6 12 -7 19 -2 16 5 -3
10 12 10 34 2 29 -3 41 -17 49 -26 14 -27 13 -46 -15z m-140 -266 c-4 -7 3
-19 15 -28 21 -16 22 -17 2 -38 -14 -15 -16 -24 -9 -31 8 -8 7 -13 -5 -18 -23
-8 -67 4 -67 18 0 9 3 9 11 1 23 -23 35 -3 33 52 -2 43 1 55 13 55 8 0 11 -5
7 -11z m173 -21 c-3 -8 -6 -5 -6 6 -1 11 2 17 5 13 3 -3 4 -12 1 -19z m-417
-109 c0 -17 -21 -19 -36 -4 -13 13 -14 18 -3 31 12 14 14 14 26 -2 7 -10 13
-21 13 -25z m110 13 c0 -37 -8 -44 -31 -29 -24 15 -24 33 -1 46 27 16 32 13
32 -17z m297 -22 c2 -23 0 -40 -6 -40 -13 0 -25 65 -16 80 11 17 18 4 22 -40z
m-340 -9 c13 -11 31 -17 39 -14 8 3 14 -1 14 -10 0 -8 -12 -18 -26 -21 -22 -6
-24 -9 -13 -23 8 -8 15 -32 16 -52 2 -20 6 -51 9 -70 5 -26 3 -37 -10 -46 -13
-10 -14 -14 -3 -24 11 -8 19 -6 37 9 29 25 40 25 40 0 0 -11 4 -20 9 -20 4 0
6 -11 4 -24 -7 -32 32 -57 40 -26 7 25 24 26 32 1 7 -22 -27 -114 -41 -109 -5
2 -8 18 -7 36 1 21 -2 30 -9 26 -7 -5 -9 -1 -5 9 8 20 -12 35 -23 17 -6 -10
-12 -8 -27 6 -11 11 -23 27 -27 38 -5 14 -9 16 -21 6 -7 -6 -11 -18 -9 -25 3
-7 -3 -18 -13 -23 -17 -10 -18 -7 -15 26 2 24 0 32 -6 24 -7 -10 -11 -10 -21
1 -9 11 -8 17 4 27 8 7 12 16 9 21 -3 5 -1 9 5 9 6 0 8 7 5 15 -4 8 -1 15 5
15 6 0 11 4 11 9 0 5 -8 7 -19 4 -14 -3 -20 2 -24 24 -3 15 -2 32 3 37 5 5 5
17 -1 29 -8 14 -8 26 1 43 7 12 10 34 8 48 -6 31 -3 32 29 7z m-157 -1 c0 -5
-4 -10 -9 -10 -6 0 -13 5 -16 10 -3 6 1 10 9 10 9 0 16 -4 16 -10z m605 -3
c10 3 12 -2 8 -16 -7 -28 -23 -37 -23 -14 0 11 -4 24 -10 31 -7 8 -7 9 1 3 6
-5 17 -7 24 -4z m-55 -25 c0 -5 -12 -19 -26 -33 l-26 -24 19 32 c17 31 33 43
33 25z m20 -59 c0 -7 -4 -13 -10 -13 -5 0 -10 12 -10 28 0 21 2 24 10 12 5 -8
10 -21 10 -27z m-750 23 c0 -3 -4 -8 -10 -11 -5 -3 -10 -1 -10 4 0 6 5 11 10
11 6 0 10 -2 10 -4z m490 -72 c0 -8 -4 -14 -10 -14 -5 0 -10 9 -10 20 0 11 -7
20 -15 20 -18 0 -20 27 -3 32 13 5 38 -34 38 -58z m-480 11 c0 -5 -5 -3 -10 5
-5 8 -10 20 -10 25 0 6 5 3 10 -5 5 -8 10 -19 10 -25z m620 10 c0 -8 5 -15 10
-15 6 0 10 -4 10 -10 0 -5 -7 -10 -15 -10 -8 0 -15 4 -15 9 0 5 -3 16 -6 25
-3 9 -1 16 5 16 6 0 11 -7 11 -15z m105 -5 c3 -5 -1 -10 -9 -10 -9 0 -16 5
-16 10 0 6 4 10 9 10 6 0 13 -4 16 -10z m-235 -71 c0 -18 -18 -9 -23 12 -4 16
-3 18 9 8 8 -6 14 -15 14 -20z m-378 -13 c9 -12 17 -29 18 -39 0 -10 7 -20 15
-23 22 -9 18 -34 -5 -34 -15 0 -20 7 -20 24 0 31 -28 60 -44 47 -6 -6 -27 -13
-46 -16 -18 -3 -36 -8 -40 -10 -3 -2 -12 0 -20 5 -11 7 -12 12 -3 21 6 6 9 18
6 25 -3 8 1 14 11 14 9 0 16 4 16 9 0 18 94 -2 112 -23z m350 -28 c-7 -7 -12
-8 -12 -2 0 14 12 26 19 19 2 -3 -1 -11 -7 -17z m68 -22 c0 -23 -16 -27 -17
-5 -1 10 2 19 8 19 5 0 9 -6 9 -14z m-449 -40 c-8 -21 -47 -40 -55 -27 -3 4
-2 17 1 29 4 17 12 22 33 20 23 -2 27 -5 21 -22z m25 -33 c-11 -11 -17 4 -9
23 7 18 8 18 11 1 2 -10 1 -21 -2 -24z m-196 -63 c4 -17 8 -21 14 -12 12 19
48 -5 41 -27 -4 -13 0 -20 12 -23 25 -7 30 -61 5 -56 -9 2 -18 13 -20 24 -2
12 -14 26 -28 32 -13 7 -24 16 -24 21 0 5 -9 11 -21 14 -12 3 -18 10 -14 16 3
6 -2 11 -13 11 -19 0 -36 22 -26 33 3 2 19 1 36 -2 23 -5 34 -14 38 -31z m770
-3 c0 -23 -2 -22 -19 10 -10 19 -9 22 4 17 8 -4 15 -15 15 -27z m-340 3 c0
-11 -5 -20 -11 -20 -7 0 -9 -10 -5 -26 6 -21 4 -25 -11 -22 -24 4 -31 48 -8
48 11 0 15 5 12 14 -6 15 1 26 15 26 4 0 8 -9 8 -20z m100 10 c0 -5 -4 -10
-10 -10 -5 0 -10 5 -10 10 0 6 5 10 10 10 6 0 10 -4 10 -10z m40 -90 c0 -18
-19 -11 -30 11 -11 19 -10 20 9 9 12 -6 21 -15 21 -20z m-60 -9 c0 -9 -6 -23
-12 -30 -11 -12 -10 -13 6 -7 12 4 23 1 28 -6 13 -21 9 -26 -14 -22 -13 2 -17
2 -10 -2 8 -4 6 -11 -10 -26 -13 -11 -18 -17 -11 -14 6 3 19 3 28 0 14 -6 14
-9 -5 -29 -24 -25 -18 -55 11 -55 13 0 16 -5 12 -16 -3 -8 -12 -13 -19 -10 -8
3 -14 0 -15 -7 0 -7 -4 -2 -10 11 -5 13 -13 21 -18 18 -9 -6 -8 50 2 60 6 7
-12 75 -25 91 -12 14 -2 33 16 33 8 0 16 9 19 21 6 24 27 17 27 -10z m-393
-58 c-3 -10 -5 -4 -5 12 0 17 2 24 5 18 2 -7 2 -21 0 -30z m147 -25 c-1 -18 5
-41 14 -50 8 -10 11 -18 6 -18 -22 1 -32 18 -38 69 -6 44 -5 52 6 44 7 -6 12
-26 12 -45z m336 22 c0 -11 -4 -20 -9 -20 -5 0 -7 9 -4 20 3 11 7 20 9 20 2 0
4 -9 4 -20z m-10 -54 c0 -3 -4 -8 -10 -11 -5 -3 -10 -1 -10 4 0 6 5 11 10 11
6 0 10 -2 10 -4z m-399 -136 c0 -14 3 -19 6 -12 2 6 9 10 14 6 14 -8 11 10 -6
32 -17 23 -19 34 -5 34 6 0 10 -7 10 -15 0 -8 4 -15 9 -15 16 0 19 -59 3 -65
-12 -4 -13 -8 -4 -17 16 -16 15 -28 -1 -28 -7 0 -18 10 -26 22 -16 26 -40 121
-40 158 0 33 39 -64 40 -100z m371 92 c4 -12 -1 -18 -14 -18 -11 0 -17 5 -13
14 3 7 5 18 5 23 0 16 17 1 22 -19z m-292 -34 c0 -10 4 -18 9 -18 6 0 6 -12
-1 -31 -14 -40 -20 -31 -25 38 -3 42 -1 54 7 43 5 -8 10 -23 10 -32z m390 6
c0 -8 -5 -12 -10 -9 -6 4 -8 11 -5 16 9 14 15 11 15 -7z m-332 -22 c6 -18 -15
-14 -22 4 -4 10 -1 14 6 12 6 -2 14 -10 16 -16z m290 -45 c-10 -28 -25 -43
-35 -33 -3 3 2 13 12 22 10 10 14 25 11 39 -7 27 6 43 15 18 3 -10 2 -30 -3
-46z m-79 -43 c-6 -8 -17 -14 -23 -13 -7 0 -6 2 1 6 10 3 10 10 2 25 -8 16 -7
22 8 33 16 12 18 11 21 -11 2 -14 -2 -32 -9 -40z m16 -64 c3 -5 1 -10 -4 -10
-6 0 -11 5 -11 10 0 6 2 10 4 10 3 0 8 -4 11 -10z"/>
<path d="M2382 5498 c5 -15 28 -23 28 -10 0 5 -7 13 -16 16 -10 4 -14 1 -12
-6z"/>
<path d="M2530 6120 c0 -5 5 -10 10 -10 6 0 10 5 10 10 0 6 -4 10 -10 10 -5 0
-10 -4 -10 -10z"/>
<path d="M3990 6120 c0 -13 11 -13 30 0 12 8 11 10 -7 10 -13 0 -23 -4 -23
-10z"/>
<path d="M1950 6093 c0 -7 -7 -10 -15 -6 -10 3 -15 1 -13 -7 2 -7 -8 -16 -22
-20 l-25 -6 28 -7 c15 -4 25 -12 22 -17 -3 -5 13 -19 35 -33 l40 -24 -25 -11
c-14 -6 -25 -17 -25 -23 0 -8 6 -7 18 3 9 9 28 14 41 12 20 -4 22 -1 17 20 -4
15 -1 26 7 29 9 4 9 7 -1 15 -7 5 -10 17 -6 28 4 13 3 15 -3 6 -13 -17 -35 -7
-56 26 -9 15 -17 22 -17 15z m28 -82 c3 -8 -1 -12 -9 -9 -7 2 -15 10 -17 17
-3 8 1 12 9 9 7 -2 15 -10 17 -17z"/>
<path d="M2655 6089 c-4 -5 0 -18 8 -27 8 -9 12 -23 10 -29 -3 -7 1 -13 7 -13
10 0 10 11 0 78 -1 7 -20 1 -25 -9z"/>
<path d="M1625 6080 c-3 -5 1 -10 10 -10 9 0 13 5 10 10 -3 6 -8 10 -10 10 -2
0 -7 -4 -10 -10z"/>
<path d="M2460 6066 c0 -28 14 -35 23 -12 3 8 -1 20 -9 26 -12 10 -14 8 -14
-14z"/>
<path d="M2553 6049 c-3 -34 2 -37 16 -10 8 13 7 22 -2 29 -9 8 -13 3 -14 -19z"/>
<path d="M2866 6071 c-4 -7 -5 -15 -2 -18 9 -9 19 4 14 18 -4 11 -6 11 -12 0z"/>
<path d="M3201 6064 c0 -11 3 -14 6 -6 3 7 2 16 -1 19 -3 4 -6 -2 -5 -13z"/>
<path d="M1215 6062 c-3 -4 -27 -9 -53 -13 l-47 -6 60 -2 c33 -1 70 -4 83 -7
16 -5 22 -2 22 10 0 9 -3 17 -7 17 -30 5 -53 5 -58 1z"/>
<path d="M1668 6053 c7 -3 16 -2 19 1 4 3 -2 6 -13 5 -11 0 -14 -3 -6 -6z"/>
<path d="M3630 6049 c0 -5 5 -7 10 -4 6 3 10 8 10 11 0 2 -4 4 -10 4 -5 0 -10
-5 -10 -11z"/>
<path d="M2075 6020 c-3 -6 1 -7 9 -4 18 7 21 14 7 14 -6 0 -13 -4 -16 -10z"/>
<path d="M2872 6023 c-15 -6 -6 -23 14 -23 8 0 14 7 14 15 0 15 -6 17 -28 8z"/>
<path d="M3491 6014 c0 -11 3 -14 6 -6 3 7 2 16 -1 19 -3 4 -6 -2 -5 -13z"/>
<path d="M1310 5990 c0 -5 5 -10 10 -10 6 0 10 5 10 10 0 6 -4 10 -10 10 -5 0
-10 -4 -10 -10z"/>
<path d="M2684 5968 c3 -18 11 -37 18 -43 8 -7 9 -5 4 8 -3 10 -6 30 -6 43 0
13 -5 24 -11 24 -8 0 -9 -11 -5 -32z"/>
<path d="M1936 5975 c4 -8 8 -15 10 -15 2 0 4 7 4 15 0 8 -4 15 -10 15 -5 0
-7 -7 -4 -15z"/>
<path d="M3346 5975 c4 -8 8 -15 10 -15 2 0 4 7 4 15 0 8 -4 15 -10 15 -5 0
-7 -7 -4 -15z"/>
<path d="M1701 5959 c-13 -10 -19 -19 -14 -19 5 0 14 5 21 12 9 9 15 8 25 -6
8 -11 23 -17 38 -14 30 4 23 23 -9 23 -12 0 -26 5 -30 12 -5 8 -14 6 -31 -8z"/>
<path d="M2310 5965 c0 -8 5 -15 10 -15 6 0 10 7 10 15 0 8 -4 15 -10 15 -5 0
-10 -7 -10 -15z"/>
<path d="M3555 5969 c-10 -15 3 -25 16 -12 7 7 7 13 1 17 -6 3 -14 1 -17 -5z"/>
<path d="M980 5950 c0 -5 5 -10 10 -10 6 0 10 5 10 10 0 6 -4 10 -10 10 -5 0
-10 -4 -10 -10z"/>
<path d="M2510 5924 c0 -9 5 -14 12 -12 18 6 21 28 4 28 -9 0 -16 -7 -16 -16z"/>
<path d="M2646 5921 c-10 -11 -13 -22 -8 -25 6 -3 13 -24 17 -46 4 -22 11 -40
17 -40 6 0 7 7 4 16 -4 9 -2 22 4 29 8 9 6 17 -5 28 -10 11 -11 17 -3 19 8 3
8 10 1 21 -9 17 -10 17 -27 -2z"/>
<path d="M2368 5924 c-4 -3 -4 -13 -1 -21 8 -20 -37 -14 -55 7 -12 13 -13 12
-9 -7 3 -15 1 -20 -9 -16 -8 3 -14 0 -14 -6 0 -6 6 -11 14 -11 8 0 17 -11 20
-24 5 -20 11 -23 38 -21 31 2 33 5 36 45 3 41 -7 68 -20 54z"/>
<path d="M6660 5910 c0 -11 5 -20 10 -20 6 0 10 9 10 20 0 11 -4 20 -10 20 -5
0 -10 -9 -10 -20z"/>
<path d="M2422 5910 c0 -8 4 -26 8 -40 6 -20 8 -21 8 -5 0 11 -3 29 -8 40 -5
12 -8 14 -8 5z"/>
<path d="M3515 5899 c-9 -28 0 -35 20 -15 9 9 12 16 5 16 -6 0 -8 5 -5 10 3 6
2 10 -4 10 -5 0 -13 -9 -16 -21z"/>
<path d="M3656 5911 c-4 -5 3 -7 14 -4 23 6 26 13 6 13 -8 0 -17 -4 -20 -9z"/>
<path d="M2577 5895 c-20 -15 -22 -29 -4 -43 15 -13 47 8 47 31 0 21 -22 27
-43 12z"/>
<path d="M3301 5879 c-14 -41 -14 -41 8 -34 12 3 21 0 25 -10 3 -9 11 -13 17
-9 8 5 6 10 -5 16 -9 5 -14 13 -11 19 4 5 0 18 -8 30 -14 20 -15 19 -26 -12z"/>
<path d="M2453 5880 c1 -11 4 -20 8 -20 10 0 19 27 12 34 -12 12 -22 5 -20
-14z"/>
<path d="M2225 5880 c3 -5 8 -10 11 -10 2 0 4 5 4 10 0 6 -5 10 -11 10 -5 0
-7 -4 -4 -10z"/>
<path d="M2504 5878 c-9 -15 10 -30 29 -22 9 3 17 10 17 14 0 12 -39 19 -46 8z"/>
<path d="M3616 5864 c-13 -31 -18 -74 -9 -74 15 0 35 58 25 76 -8 15 -10 14
-16 -2z"/>
<path d="M1787 5861 l-28 -6 22 -18 c12 -10 29 -17 39 -14 9 2 25 0 34 -5 11
-6 16 -5 16 4 -1 33 -35 50 -83 39z"/>
<path d="M3428 5854 c-13 -12 -9 -72 5 -78 8 -3 7 -8 -5 -16 -10 -6 -18 -16
-18 -23 0 -7 -11 -34 -25 -61 -14 -27 -25 -55 -25 -63 0 -7 -6 -13 -13 -13
-15 0 -11 56 4 66 5 3 9 13 9 22 -1 15 -2 15 -11 -1 -6 -9 -14 -15 -20 -12 -5
4 -9 -3 -9 -14 0 -12 -4 -21 -10 -21 -14 0 -12 22 5 56 8 16 17 48 20 72 4 37
2 42 -15 42 -11 0 -20 -2 -20 -4 0 -34 -24 -110 -40 -126 -14 -14 -19 -28 -15
-38 18 -43 7 -163 -16 -177 -5 -3 -6 1 -2 10 3 10 0 21 -8 26 -12 8 -12 10 1
18 8 6 12 13 8 16 -3 4 -11 0 -17 -7 -6 -7 -22 -26 -36 -41 -27 -30 -30 -42
-16 -52 5 -3 12 3 14 12 3 12 5 9 6 -8 0 -15 -5 -31 -12 -38 -8 -6 -12 -26
-10 -51 2 -32 -3 -48 -30 -82 -17 -24 -37 -43 -42 -43 -6 0 -17 -40 -25 -90
l-14 -90 -7 53 c-8 60 -14 72 -22 42 -3 -11 -1 -18 4 -14 13 8 11 -10 -5 -41
-8 -14 -16 -21 -18 -15 -2 6 -3 -25 -3 -69 0 -45 3 -81 7 -81 3 0 13 28 22 63
12 49 14 53 10 17 -4 -25 -10 -74 -14 -110 -4 -36 -15 -101 -25 -144 -9 -44
-15 -99 -12 -123 3 -30 0 -48 -10 -58 -25 -25 -53 -225 -51 -369 1 -110 2
-123 10 -81 5 28 18 78 29 113 12 35 18 66 15 69 -3 4 -6 0 -6 -9 0 -8 -7 -15
-16 -15 -13 0 -15 8 -10 46 7 54 12 75 25 116 9 28 9 29 10 5 1 -20 3 -22 11
-10 7 11 10 7 10 -19 0 -56 13 -26 15 36 1 35 -3 63 -11 70 -7 7 -10 23 -6 35
6 23 6 22 16 -4 5 -16 15 -28 22 -28 13 0 26 53 18 75 -4 8 -1 15 6 15 8 0 10
10 5 33 -5 23 -3 28 4 17 8 -12 12 -9 17 18 4 17 11 32 16 32 5 0 6 5 3 11 -4
5 3 18 14 28 23 20 27 37 9 43 -7 3 -9 11 -3 24 4 10 7 22 7 27 -1 4 5 7 13 7
16 0 20 30 6 45 -5 6 -12 35 -16 66 -6 47 -4 57 10 63 12 4 18 0 22 -14 4 -16
8 -18 19 -9 10 8 11 15 4 24 -13 15 -17 70 -6 72 14 2 26 26 26 50 0 12 6 28
13 35 7 7 13 27 13 43 -1 23 3 29 17 27 18 -3 19 2 22 93 1 55 30 125 51 125
8 0 14 -7 14 -15 0 -8 7 -15 16 -15 10 0 14 5 10 15 -5 15 28 90 45 101 5 3 9
12 9 21 0 9 10 27 22 40 15 16 17 23 7 23 -8 0 -14 10 -14 23 0 15 6 24 15 23
10 -1 14 7 13 24 -2 21 -1 22 5 6 10 -24 17 -13 26 39 5 28 4 35 -3 25 -18
-26 -23 -2 -7 31 19 37 16 45 -12 30 -27 -14 -30 -14 -34 5 -2 9 -6 12 -10 8z
m42 -44 c0 -5 -4 -10 -10 -10 -5 0 -10 5 -10 10 0 6 5 10 10 10 6 0 10 -4 10
-10z m-208 -162 c-7 -7 -12 -8 -12 -2 0 14 12 26 19 19 2 -3 -1 -11 -7 -17z
m98 -70 c0 -4 -7 -8 -15 -8 -8 0 -15 4 -15 8 0 5 7 9 15 9 8 0 15 -4 15 -9z
m-263 -790 c-3 -8 -6 -5 -6 6 -1 11 2 17 5 13 3 -3 4 -12 1 -19z m-65 -106
c-3 -9 -1 -13 5 -9 5 4 10 -6 10 -23 0 -16 -6 -31 -14 -34 -10 -4 -12 1 -7 22
l6 27 -21 -25 c-11 -14 -21 -20 -21 -13 0 6 5 15 11 19 6 3 9 17 6 30 -2 13 0
24 4 24 5 0 10 24 10 53 l1 52 8 -54 c5 -30 6 -61 2 -69z m-82 -448 c0 -8 -4
-12 -10 -9 -5 3 -10 13 -10 21 0 8 5 12 10 9 6 -3 10 -13 10 -21z"/>
<path d="M1710 5830 c-11 -7 -6 -9 17 -7 18 1 33 5 33 10 0 10 -32 9 -50 -3z"/>
<path d="M1288 5783 c5 -25 6 -25 13 -8 11 29 10 35 -5 35 -9 0 -12 -8 -8 -27z"/>
<path d="M3520 5774 c0 -8 5 -12 10 -9 6 4 8 11 5 16 -9 14 -15 11 -15 -7z"/>
<path d="M3510 5720 c0 -5 5 -10 11 -10 5 0 7 5 4 10 -3 6 -8 10 -11 10 -2 0
-4 -4 -4 -10z"/>
<path d="M3548 5723 c7 -3 16 -2 19 1 4 3 -2 6 -13 5 -11 0 -14 -3 -6 -6z"/>
<path d="M5360 5713 c0 -14 20 -39 20 -25 0 6 7 12 15 12 8 0 15 5 15 10 0 6
-11 10 -25 10 -14 0 -25 -3 -25 -7z"/>
<path d="M1205 5690 c-19 -3 -25 -8 -15 -11 18 -7 69 5 55 12 -6 3 -23 3 -40
-1z"/>
<path d="M1430 5690 c9 -4 31 -5 50 0 34 8 33 8 -15 9 -34 0 -45 -3 -35 -9z"/>
<path d="M3493 5688 c-21 -34 -42 -82 -38 -86 3 -3 15 8 27 24 13 16 31 37 41
47 18 18 18 19 -3 12 -15 -5 -20 -4 -16 4 4 6 5 11 2 11 -3 0 -8 -6 -13 -12z"/>
<path d="M4070 5692 c0 -16 37 -42 59 -42 23 0 23 0 4 18 -10 9 -14 14 -8 10
7 -4 15 -5 18 -1 16 15 4 23 -33 23 -22 0 -40 -4 -40 -8z"/>
<path d="M2131 5676 c-14 -16 -4 -46 15 -46 20 0 36 34 22 48 -15 15 -23 15
-37 -2z"/>
<path d="M3843 5683 c9 -2 23 -2 30 0 6 3 -1 5 -18 5 -16 0 -22 -2 -12 -5z"/>
<path d="M3611 5642 c-8 -18 -11 -35 -8 -38 8 -9 29 35 25 54 -2 12 -8 7 -17
-16z"/>
<path d="M1335 5650 c3 -5 8 -10 11 -10 2 0 4 5 4 10 0 6 -5 10 -11 10 -5 0
-7 -4 -4 -10z"/>
<path d="M3507 5622 c-10 -10 -17 -26 -17 -35 0 -9 -4 -17 -10 -17 -5 0 -10 5
-10 10 0 22 -20 8 -26 -17 -3 -16 -9 -37 -14 -48 -4 -11 -16 -40 -25 -65 -9
-25 -24 -56 -33 -70 -9 -14 -18 -34 -19 -45 -2 -10 -8 -22 -15 -26 -6 -4 -10
-20 -10 -35 0 -16 -6 -38 -14 -49 -7 -11 -22 -57 -33 -102 -12 -45 -33 -104
-46 -129 -14 -26 -23 -55 -20 -64 3 -9 -2 -31 -11 -49 -9 -18 -23 -65 -31
-104 -8 -40 -19 -78 -25 -84 -6 -7 -7 -21 -4 -30 4 -10 4 -14 -1 -10 -14 15
-30 -56 -22 -100 5 -24 6 -50 2 -60 -4 -10 -2 -14 5 -10 10 7 27 63 24 82 -1
6 20 11 45 13 49 3 88 26 76 46 -4 6 -8 17 -10 25 -1 8 -7 17 -14 21 -8 5 -2
14 17 26 39 25 48 34 68 69 l17 30 -4 -27 c-4 -30 10 -39 19 -13 8 19 24 20
24 1 0 -8 -26 -27 -57 -43 -48 -23 -54 -29 -34 -31 13 -2 26 1 30 6 3 5 17 13
31 17 37 11 59 34 53 56 -3 10 0 19 6 19 6 0 11 -7 11 -15 0 -8 6 -13 13 -11
51 16 50 15 32 33 -16 16 -15 18 21 28 24 6 34 14 27 18 -6 4 -15 3 -18 -3 -5
-8 -11 -8 -20 0 -8 7 -19 9 -25 5 -5 -3 -10 -1 -10 5 0 7 -6 10 -14 7 -21 -8
-27 3 -11 20 8 8 15 25 15 39 0 22 4 24 34 21 30 -4 35 -1 46 29 11 26 19 32
40 32 15 -1 32 2 39 6 15 10 3 29 -15 22 -8 -3 -14 -1 -14 4 0 10 56 15 118
11 39 -3 41 6 5 20 l-28 11 24 9 c14 6 31 7 38 5 7 -3 13 -2 13 3 0 5 12 12
26 15 42 11 14 23 -39 18 -34 -3 -47 -8 -43 -17 6 -16 -71 -38 -93 -26 -11 7
-9 10 10 16 l24 8 -25 10 c-14 5 -36 10 -50 11 -21 1 -25 -3 -22 -26 1 -14 -3
-30 -9 -34 -8 -4 -9 0 -4 15 5 17 2 21 -16 21 -16 0 -19 3 -11 13 6 7 7 18 3
25 -6 9 -18 1 -44 -28 -40 -43 -54 -51 -42 -22 4 9 13 33 20 52 7 19 17 35 22
35 7 -1 33 40 33 51 0 14 -20 1 -20 -13 -1 -16 -2 -16 -15 1 -20 26 -19 30 10
63 16 17 25 22 24 13 -1 -8 -1 -21 0 -29 2 -24 31 8 31 35 0 12 5 26 11 30 6
3 9 19 6 34 -5 21 0 32 20 48 16 13 27 33 30 54 2 18 10 38 18 44 8 6 15 17
15 23 0 24 -23 5 -49 -42 -14 -25 -35 -57 -46 -69 -11 -12 -28 -34 -37 -48
-25 -35 -22 -13 5 40 25 50 37 134 15 112 -18 -18 -30 -15 -19 7 6 10 7 21 4
25 -4 3 2 16 13 29 43 50 53 95 11 49z m-177 -562 c0 -5 -4 -10 -10 -10 -5 0
-10 5 -10 10 0 6 5 10 10 10 6 0 10 -4 10 -10z m160 -34 c0 -2 -7 -7 -16 -10
-8 -3 -12 -2 -9 4 6 10 25 14 25 6z m-206 -93 c-30 -72 -34 -85 -28 -94 6 -11
-13 -39 -27 -39 -12 0 -12 67 0 74 5 4 19 26 31 51 26 54 47 61 24 8z m111
-93 c17 -7 14 -9 -13 -9 -20 -1 -31 3 -27 9 7 12 13 12 40 0z m44 -36 c2 -2
-8 -4 -22 -4 -15 0 -30 0 -34 -1 -4 0 -9 4 -11 10 -3 10 55 5 67 -5z"/>
<path d="M3210 5604 c0 -3 5 -15 11 -26 9 -16 13 -18 20 -7 4 8 3 19 -3 26
-11 13 -28 18 -28 7z"/>
<path d="M6035 5560 c3 -5 11 -10 16 -10 6 0 7 5 4 10 -3 6 -11 10 -16 10 -6
0 -7 -4 -4 -10z"/>
<path d="M6035 5507 c-17 -13 -17 -14 4 -20 16 -4 21 -1 21 14 0 23 -1 23 -25
6z"/>
<path d="M3100 5365 c0 -8 4 -15 10 -15 5 0 7 7 4 15 -4 8 -8 15 -10 15 -2 0
-4 -7 -4 -15z"/>
<path d="M3966 5361 c-4 -6 -13 -8 -20 -5 -8 3 -17 -3 -21 -15 -3 -11 -12 -18
-20 -15 -7 3 -26 -1 -42 -10 -28 -15 -28 -15 -3 -16 33 0 14 -16 -30 -24 -26
-4 -30 -4 -15 3 18 9 18 10 2 10 -10 1 -15 6 -12 11 3 6 -14 -4 -39 -20 -25
-17 -48 -36 -52 -41 -3 -6 -16 -15 -28 -20 -14 -6 6 -8 64 -4 113 7 132 13
125 36 -5 15 -1 19 19 19 16 0 32 9 42 25 9 14 22 25 29 25 23 0 37 26 21 39
-9 8 -16 8 -20 2z"/>
<path d="M3110 5312 c0 -4 9 -8 20 -8 11 0 20 4 20 8 0 4 -9 8 -20 8 -11 0
-20 -4 -20 -8z"/>
<path d="M1915 5290 c-27 -7 -26 -8 15 -9 25 0 52 4 60 9 11 7 8 9 -15 9 -16
-1 -43 -5 -60 -9z"/>
<path d="M1618 5283 c7 -3 16 -2 19 1 4 3 -2 6 -13 5 -11 0 -14 -3 -6 -6z"/>
<path d="M1803 5283 c9 -2 25 -2 35 0 9 3 1 5 -18 5 -19 0 -27 -2 -17 -5z"/>
<path d="M6185 5280 c3 -5 12 -7 20 -3 21 7 19 13 -6 13 -11 0 -18 -4 -14 -10z"/>
<path d="M3075 5250 c-3 -5 -1 -10 4 -10 6 0 11 5 11 10 0 6 -2 10 -4 10 -3 0
-8 -4 -11 -10z"/>
<path d="M3585 5209 c-38 -33 -39 -37 -26 -57 7 -12 13 -11 37 2 16 8 23 15
17 16 -19 0 -16 18 7 37 11 10 20 21 20 25 0 16 -20 7 -55 -23z"/>
<path d="M2987 5174 c-3 -3 -3 -13 0 -21 5 -12 7 -12 14 -1 15 23 4 40 -14 22z"/>
<path d="M3660 5170 c0 -5 5 -10 11 -10 5 0 7 -5 3 -11 -5 -8 -1 -8 13 0 11 6
24 7 29 3 5 -4 2 1 -5 11 -14 18 -51 24 -51 7z"/>
<path d="M6920 5155 c-4 -35 -2 -58 5 -102 11 -60 25 -34 25 45 0 48 -4 72 -9
63 -7 -11 -10 -10 -14 5 -3 13 -5 10 -7 -11z"/>
<path d="M5610 5149 c0 -5 5 -7 10 -4 6 3 10 8 10 11 0 2 -4 4 -10 4 -5 0 -10
-5 -10 -11z"/>
<path d="M4285 5010 c2 -67 15 -77 15 -12 0 28 -4 53 -8 56 -5 3 -8 -17 -7
-44z"/>
<path d="M2085 5030 c3 -5 13 -10 21 -10 8 0 12 5 9 10 -3 6 -13 10 -21 10 -8
0 -12 -4 -9 -10z"/>
<path d="M2937 5025 c-4 -8 -2 -17 3 -20 6 -4 10 3 10 14 0 25 -6 27 -13 6z"/>
<path d="M2976 5022 c-2 -4 -7 -25 -11 -47 -5 -28 -4 -37 3 -30 11 11 28 85
19 85 -3 0 -8 -3 -11 -8z"/>
<path d="M2204 4921 c21 -23 26 -26 26 -11 0 5 -10 15 -22 21 -23 12 -23 12
-4 -10z"/>
<path d="M2544 4911 c3 -16 -1 -29 -11 -36 -13 -10 -14 -19 -3 -71 15 -68 34
-109 26 -54 -3 19 -3 29 0 23 13 -29 23 -10 18 35 -4 37 -3 43 6 30 6 -10 18
-18 26 -18 15 0 39 -48 29 -58 -3 -3 -12 3 -20 14 -13 18 -14 18 -15 1 0 -10
11 -29 25 -43 l25 -25 0 39 c0 61 -11 101 -29 105 -14 4 -14 5 2 6 37 2 13 33
-32 39 -14 2 -31 11 -39 20 -12 15 -13 15 -8 -7z m3 -113 c-3 -8 -6 -5 -6 6
-1 11 2 17 5 13 3 -3 4 -12 1 -19z"/>
<path d="M4540 4920 c0 -5 6 -10 14 -10 8 0 18 5 21 10 3 6 -3 10 -14 10 -12
0 -21 -4 -21 -10z"/>
<path d="M2951 4841 c-13 -81 -13 -105 -1 -74 10 25 25 143 18 143 -3 0 -10
-31 -17 -69z"/>
<path d="M1676 4892 c-9 -15 5 -21 37 -18 30 4 50 16 26 16 -8 0 -24 3 -35 6
-12 3 -25 1 -28 -4z"/>
<path d="M1770 4880 c0 -5 12 -10 26 -10 14 0 23 4 19 10 -3 6 -15 10 -26 10
-10 0 -19 -4 -19 -10z"/>
<path d="M1876 4881 c-22 -3 -41 -12 -44 -19 -3 -9 3 -10 23 -2 14 5 41 10 60
10 19 0 37 5 40 10 7 11 -15 11 -79 1z"/>
<path d="M2005 4881 c-17 -7 -16 -9 12 -15 24 -6 37 -3 49 8 14 15 13 16 -13
15 -15 0 -37 -4 -48 -8z"/>
<path d="M2664 4853 c2 -15 8 -29 13 -30 5 -2 8 10 5 27 -5 37 -22 40 -18 3z"/>
<path d="M5080 4870 c0 -5 7 -10 15 -10 8 0 15 5 15 10 0 6 -7 10 -15 10 -8 0
-15 -4 -15 -10z"/>
<path d="M5288 4868 c9 -9 15 -9 24 0 9 9 7 12 -12 12 -19 0 -21 -3 -12 -12z"/>
<path d="M5938 4868 c17 -8 26 -8 34 0 9 9 4 12 -22 11 -33 0 -34 -1 -12 -11z"/>
<path d="M1278 4863 c12 -2 32 -2 45 0 12 2 2 4 -23 4 -25 0 -35 -2 -22 -4z"/>
<path d="M1443 4859 c-12 -4 -4 -8 22 -11 22 -3 46 -7 54 -9 7 -2 15 1 18 7 5
13 -66 23 -94 13z"/>
<path d="M3808 4863 c6 -2 18 -2 25 0 6 3 1 5 -13 5 -14 0 -19 -2 -12 -5z"/>
<path d="M2975 4804 c-7 -60 -1 -85 9 -35 3 17 9 45 12 61 3 17 1 30 -4 30 -5
0 -13 -25 -17 -56z"/>
<path d="M5197 4830 c3 -11 12 -20 21 -20 13 0 12 3 -3 20 -10 11 -19 20 -21
20 -1 0 0 -9 3 -20z"/>
<path d="M2180 4796 c0 -2 9 -6 20 -9 11 -3 20 -1 20 4 0 5 -9 9 -20 9 -11 0
-20 -2 -20 -4z"/>
<path d="M2481 4740 c11 -36 25 -74 31 -84 10 -18 58 -154 58 -164 0 -13 -30
23 -31 37 0 9 -3 11 -5 4 -3 -7 0 -22 7 -35 7 -13 14 -32 16 -42 2 -11 7 -24
12 -30 13 -16 61 -180 61 -207 0 -12 7 -46 17 -75 19 -62 10 -84 -35 -77 -20
3 -23 2 -13 -6 12 -8 9 -11 -15 -16 -16 -4 -38 -10 -49 -15 -15 -7 -10 -9 23
-9 51 -1 82 -15 82 -38 0 -9 -21 -62 -47 -117 -26 -56 -52 -125 -58 -155 -14
-70 -34 -83 -75 -53 -30 23 -41 18 -17 -7 10 -11 9 -13 -3 -9 -28 9 -41 50
-36 113 9 99 76 285 108 298 10 4 10 6 0 6 -29 2 -64 -56 -98 -166 -57 -179
-48 -229 47 -293 l54 -36 3 -337 2 -337 -370 0 -370 0 0 50 c0 44 -12 67 -22
41 -1 -5 -79 -11 -173 -14 l-170 -6 -35 -38 c-19 -21 -54 -60 -77 -86 -33 -37
-49 -47 -72 -47 -17 0 -31 -4 -31 -10 0 -5 9 -10 21 -10 20 0 19 -2 -8 -39
-31 -43 -91 -109 -115 -129 -13 -11 -16 -10 -14 5 0 10 -4 17 -10 16 -6 -1
-10 8 -10 20 1 13 -4 21 -11 19 -8 -1 -13 8 -13 22 0 40 -12 86 -23 86 -29 0
-36 -37 -37 -178 l0 -143 -65 -78 c-62 -75 -65 -82 -65 -131 0 -78 10 -90 75
-90 l55 0 1 -152 c0 -84 3 -555 5 -1047 2 -492 6 -896 8 -899 3 -2 1 -15 -4
-28 l-10 -24 2908 2 2907 3 37 40 c30 33 34 43 27 63 -5 13 -7 27 -4 32 3 5 1
11 -5 15 -18 11 -10 23 13 18 13 -3 17 -1 11 4 -17 12 -36 52 -30 62 3 5 -2
11 -12 13 -10 3 -18 15 -19 28 -1 13 -8 27 -15 32 -10 6 -7 13 12 29 16 13 21
22 13 25 -7 3 -9 12 -7 19 4 9 -4 17 -22 21 -16 4 -29 3 -31 -3 -2 -6 -15 -8
-28 -5 -15 2 -22 9 -18 16 4 6 6 21 4 33 -2 16 2 21 11 18 9 -4 14 2 13 17 0
31 -14 50 -28 42 -8 -5 -8 -3 0 6 9 10 63 15 208 18 l195 5 0 37 c0 45 -9 49
-97 40 -65 -6 -205 12 -236 30 -10 6 -26 8 -36 5 -20 -6 -59 2 -176 35 -38 11
-80 20 -92 20 -12 0 -26 6 -30 14 -4 7 -15 16 -23 19 -9 4 -5 6 10 6 14 -1 30
0 35 1 6 1 24 3 40 5 17 1 47 5 69 9 22 3 44 2 51 -4 11 -9 74 -14 115 -9 8 1
52 -4 98 -10 60 -9 87 -9 97 -1 8 7 21 7 39 0 14 -5 26 -6 26 -1 0 5 24 9 53
8 l52 0 3 321 c2 310 2 322 -18 342 -11 11 -17 26 -14 34 6 16 -32 64 -42 53
-3 -3 -16 -2 -29 3 -15 6 -27 4 -35 -3 -9 -9 -11 -9 -6 0 6 11 -47 37 -70 34
-7 -1 -14 5 -18 14 -3 9 -18 15 -41 15 -37 0 -41 5 -25 30 8 12 14 13 41 3 31
-12 31 -12 14 7 -10 11 -21 17 -26 15 -4 -3 -13 1 -20 8 -7 7 -25 11 -41 9
-36 -5 -88 16 -88 35 0 12 -7 14 -30 9 -22 -4 -30 -2 -30 9 0 9 9 15 23 15 12
0 29 5 37 10 13 8 12 10 -2 10 -10 0 -18 5 -18 11 0 7 8 9 23 4 12 -3 31 -8
41 -9 11 -1 22 -8 24 -14 5 -15 32 -16 32 -2 0 6 -5 10 -12 10 -9 0 -9 3 0 12
8 8 15 8 27 -2 10 -8 15 -9 15 -1 0 6 -4 11 -10 11 -5 0 -10 5 -10 10 0 6 7
10 15 10 8 0 15 -4 15 -10 0 -19 5 -25 35 -42 16 -9 29 -21 28 -26 -1 -6 15
-8 39 -6 23 2 38 1 35 -3 -11 -11 32 -41 69 -48 34 -6 35 -7 18 -21 -16 -13
-16 -15 -2 -10 9 2 24 -4 34 -15 11 -12 13 -19 5 -19 -7 0 -9 -5 -6 -10 21
-33 25 11 25 255 0 164 -4 265 -10 265 -5 0 -7 -7 -4 -15 8 -20 1 -19 -36 3
-16 10 -27 22 -23 25 3 4 0 7 -8 8 -8 0 -7 3 5 8 16 6 13 11 -25 33 -36 22
-45 24 -52 12 -13 -23 -68 -18 -74 7 -3 12 -11 18 -19 15 -16 -6 -19 10 -4 19
22 13 8 25 -25 20 -19 -2 -37 0 -40 5 -4 6 -21 10 -38 11 -20 0 -26 3 -17 7 9
4 15 14 15 22 -1 21 20 40 43 40 29 0 53 31 39 50 -17 22 -35 22 -41 2 -8 -25
-141 -31 -171 -8 -11 9 -27 15 -35 15 -11 0 -10 -3 4 -14 19 -15 19 -15 -2
-15 -11 0 -38 16 -59 35 -34 32 -62 41 -102 35 -8 -1 -18 4 -22 12 -7 10 -11
10 -17 1 -13 -21 -87 8 -122 47 -28 32 -35 48 -31 78 4 29 -92 -9 -105 -42 -5
-14 24 -71 73 -145 13 -19 23 -43 23 -55 -1 -19 -2 -18 -15 6 l-15 27 -855 -3
c-471 -1 -861 2 -868 6 -8 5 -5 8 8 8 15 0 17 2 6 9 -20 13 -1 19 51 17 32 -1
49 3 53 12 2 7 1 10 -4 7 -5 -3 -12 -1 -16 5 -4 6 -11 7 -17 4 -17 -11 -118
18 -118 33 0 10 6 12 19 8 11 -3 22 -1 26 5 4 6 -5 10 -22 11 -15 0 -37 4 -47
8 -19 7 -18 8 5 15 13 5 31 7 39 6 9 -1 3 10 -15 30 -17 18 -23 30 -15 28 21
-4 27 50 6 58 -14 5 -14 8 0 22 9 8 14 25 11 38 -3 17 1 25 15 30 15 4 17 9 9
17 -16 16 -13 54 5 61 9 3 29 6 45 6 17 0 39 5 50 10 11 6 24 8 29 5 15 -10
177 -16 372 -15 111 1 178 -3 182 -9 4 -6 19 -8 34 -5 35 7 62 -14 66 -50 2
-15 9 -32 17 -38 11 -7 8 -9 -8 -5 -15 3 -23 0 -23 -9 0 -7 -6 -11 -14 -8 -20
8 -28 -43 -7 -52 12 -5 7 -10 -19 -19 -19 -8 -45 -14 -57 -14 -13 -1 -23 -4
-23 -9 0 -10 59 -62 70 -62 5 0 11 -6 13 -12 3 -7 6 -1 6 14 1 28 18 37 59 30
33 -6 27 -22 -8 -22 -34 0 -49 -23 -33 -49 7 -11 23 -15 48 -14 36 1 59 18 49
35 -9 14 7 9 22 -7 9 -8 21 -15 27 -15 9 0 9 2 0 8 -15 9 -5 24 27 40 14 7 18
11 8 8 -28 -8 -29 7 -2 25 24 15 25 18 9 27 -20 11 -14 44 7 41 24 -3 38 1 38
10 0 5 -9 7 -20 4 -12 -3 -20 0 -20 6 0 7 -4 9 -10 6 -6 -3 -7 1 -4 9 3 9 11
16 17 16 18 0 -4 15 -24 16 -31 2 -32 3 -19 19 7 8 28 15 46 15 19 0 34 5 34
11 0 6 -7 9 -15 5 -18 -6 -45 2 -45 15 0 5 7 9 15 9 8 0 15 -4 15 -9 0 -12 64
6 68 19 2 6 9 10 15 10 8 0 7 -4 -1 -12 -28 -28 -11 -33 118 -33 71 0 130 -3
130 -7 0 -5 7 -8 15 -8 8 0 15 6 15 13 0 8 3 8 9 -2 11 -17 52 -23 71 -11 11
7 11 11 1 24 -8 9 -19 16 -25 16 -6 0 -4 -4 4 -10 26 -16 5 -20 -40 -7 -49 14
-56 24 -36 52 13 18 14 18 9 -10 l-5 -30 24 35 c24 34 28 84 5 61 -19 -19 -31
-12 -13 8 10 11 23 18 29 17 7 -2 9 -1 5 1 -15 9 -8 23 12 23 11 0 20 3 20 8
0 10 -31 55 -44 64 -6 4 -102 8 -213 8 l-203 0 3 -59 2 -60 -476 -7 -477 -7
-7 72 -7 71 -132 1 c-72 0 -179 0 -238 -1 -79 -1 -115 3 -137 14 -37 20 -42
20 -35 1 6 -13 -11 -15 -125 -13 -81 1 -131 6 -132 13 -1 5 0 22 1 38 1 15 -3
27 -9 27 -5 0 -11 -17 -13 -37 -3 -35 -6 -38 -35 -41 -31 -3 -33 -6 -33 -43
l0 -39 -178 0 c-98 0 -181 -2 -183 -4 -2 -2 -1 -62 2 -133 3 -70 2 -137 -2
-149 -4 -12 -26 -28 -48 -38 -38 -15 -71 -20 -194 -30 -50 -4 -106 7 -116 23
-3 5 -3 49 0 98 3 48 2 93 -3 99 -4 6 -6 25 -3 43 2 17 -1 71 -6 119 -19 171
-25 328 -20 534 2 69 1 130 -2 135 -8 13 -30 95 -34 128 -7 55 -2 157 7 176 6
10 10 25 10 34 0 9 7 23 15 31 22 22 20 91 -2 97 -17 4 -17 5 0 6 13 1 17 10
18 44 0 23 3 59 5 81 3 21 1 43 -5 50 -5 6 -14 27 -20 46 -9 30 -10 25 -6 -40
3 -49 1 -70 -5 -60 -5 8 -10 10 -10 4 0 -6 -7 -11 -15 -11 -11 0 -15 12 -15
49 0 30 -4 47 -10 43 -6 -4 -9 10 -9 37 2 30 3 35 6 16 8 -53 20 -27 26 55 3
45 2 98 -3 117 -7 28 -8 23 -3 -21 3 -40 1 -59 -7 -64 -10 -6 -11 -1 -6 19 4
17 2 26 -5 26 -8 0 -10 -14 -6 -45 4 -27 3 -45 -3 -45 -6 0 -10 -15 -11 -32
-1 -31 -1 -32 -9 -8 -4 14 -9 48 -11 75 l-2 50 -6 -45 -6 -45 -19 73 c-10 40
-21 71 -23 68 -3 -3 0 -35 6 -73 6 -37 13 -96 16 -131 2 -35 6 -84 10 -110 3
-26 -10 14 -29 88 -19 74 -35 126 -36 115 l-1 -20 -9 20 c-12 29 -12 47 1 39
7 -4 9 0 6 12 -3 11 -13 48 -22 84 -9 36 -25 77 -35 92 -11 14 -31 59 -45 99
-32 92 -52 115 -24 29z m216 -502 c-3 -8 -6 -5 -6 6 -1 11 2 17 5 13 3 -3 4
-12 1 -19z m30 -100 c-2 -24 -4 -7 -4 37 0 44 2 63 4 43 2 -21 2 -57 0 -80z
m20 -40 c-3 -7 -5 -2 -5 12 0 14 2 19 5 13 2 -7 2 -19 0 -25z m2728 -1348 c3
-6 -1 -7 -9 -4 -18 7 -21 14 -7 14 6 0 13 -4 16 -10z m-2195 -245 c0 -8 -4
-15 -10 -15 -5 0 -10 7 -10 15 0 8 5 15 10 15 6 0 10 -7 10 -15z m2098 -4 c3
-8 -1 -12 -9 -9 -7 2 -15 10 -17 17 -3 8 1 12 9 9 7 -2 15 -10 17 -17z m-63
-34 c-4 -9 -18 -15 -40 -14 -24 1 -31 5 -27 15 3 9 14 12 33 8 19 -3 29 -1 29
6 0 6 2 9 5 6 3 -3 3 -12 0 -21z m-1755 4 c0 -14 -18 -23 -31 -15 -8 4 -7 9 2
15 18 11 29 11 29 0z m820 -111 c0 -5 -4 -10 -10 -10 -5 0 -10 5 -10 10 0 6 5
10 10 10 6 0 10 -4 10 -10z m-3203 -262 c-3 -8 -6 -5 -6 6 -1 11 2 17 5 13 3
-3 4 -12 1 -19z m5903 -48 c0 -5 -2 -10 -4 -10 -3 0 -8 5 -11 10 -3 6 -1 10 4
10 6 0 11 -4 11 -10z m-3522 -208 c6 -18 -15 -14 -22 4 -4 10 -1 14 6 12 6 -2
14 -10 16 -16z m3492 -382 c0 -5 -4 -10 -10 -10 -5 0 -10 5 -10 10 0 6 5 10
10 10 6 0 10 -4 10 -10z m-2650 -179 l-1 -26 -20 24 c-14 17 -17 26 -8 32 6 4
8 13 5 20 -4 8 0 5 8 -5 9 -11 16 -31 16 -45z m-2315 19 c3 -5 3 -15 -1 -21
-6 -11 -23 6 -24 24 0 10 18 9 25 -3z m3703 -435 c-3 -3 -9 2 -12 12 -6 14 -5
15 5 6 7 -7 10 -15 7 -18z m-3698 -341 c0 -8 -4 -12 -10 -9 -5 3 -10 13 -10
21 0 8 5 12 10 9 6 -3 10 -13 10 -21z m4600 -4 c0 -5 -2 -10 -4 -10 -3 0 -8 5
-11 10 -3 6 -1 10 4 10 6 0 11 -4 11 -10z"/>
<path d="M2874 4774 c-18 -19 -21 -35 -23 -118 -1 -53 3 -96 8 -96 11 0 21 65
17 113 -2 20 -1 37 4 37 6 0 23 83 17 85 -1 1 -11 -9 -23 -21z"/>
<path d="M1455 4780 c3 -5 8 -10 11 -10 2 0 4 5 4 10 0 6 -5 10 -11 10 -5 0
-7 -4 -4 -10z"/>
<path d="M3858 4783 c7 -3 16 -2 19 1 4 3 -2 6 -13 5 -11 0 -14 -3 -6 -6z"/>
<path d="M2906 4746 c-4 -21 -5 -40 -2 -43 7 -8 18 42 14 64 -3 11 -7 3 -12
-21z"/>
<path d="M2747 4734 c-9 -15 7 -162 20 -175 7 -7 9 13 5 68 -5 82 -15 123 -25
107z"/>
<path d="M2584 4704 c5 -19 4 -24 -5 -18 -9 5 -10 2 -6 -10 4 -9 14 -63 23
-119 9 -56 18 -104 19 -106 2 -2 2 42 0 96 -3 94 -19 183 -31 183 -4 0 -3 -12
0 -26z"/>
<path d="M2955 4688 c-3 -24 -9 -59 -12 -78 -3 -19 -3 -32 1 -29 9 9 34 149
25 149 -4 0 -10 -19 -14 -42z"/>
<path d="M2686 4665 c4 -27 8 -52 10 -54 8 -9 2 65 -7 84 -6 13 -7 4 -3 -30z"/>
<path d="M2932 4665 c0 -16 2 -22 5 -12 2 9 2 23 0 30 -3 6 -5 -1 -5 -18z"/>
<path d="M2721 4635 c-1 -39 22 -118 26 -90 2 11 -3 43 -11 70 -12 42 -14 45
-15 20z"/>
<path d="M3330 4638 c-24 -10 -24 -10 -5 -18 18 -7 16 -9 -12 -15 -18 -4 -33
-11 -33 -15 0 -15 31 -20 52 -9 12 6 47 9 79 7 33 -2 59 -1 59 3 0 12 -29 31
-39 25 -5 -3 -12 0 -14 6 -4 10 -7 10 -14 1 -7 -9 -12 -8 -23 7 -16 23 -16 23
-50 8z m35 -18 c3 -5 1 -10 -4 -10 -6 0 -11 5 -11 10 0 6 2 10 4 10 3 0 8 -4
11 -10z"/>
<path d="M2703 4555 c0 -27 2 -38 4 -22 2 15 2 37 0 50 -2 12 -4 0 -4 -28z"/>
<path d="M2921 4584 c0 -11 3 -14 6 -6 3 7 2 16 -1 19 -3 4 -6 -2 -5 -13z"/>
<path d="M2912 4535 c0 -16 2 -22 5 -12 2 9 2 23 0 30 -3 6 -5 -1 -5 -18z"/>
<path d="M3097 4540 c-3 -8 -8 -29 -11 -46 -3 -18 -8 -45 -11 -60 -3 -16 5 -3
19 30 18 40 23 63 16 75 -7 14 -9 14 -13 1z"/>
<path d="M2871 4491 c-1 -27 2 -32 11 -23 8 8 8 17 0 34 -10 22 -11 21 -11
-11z"/>
<path d="M1350 4500 c20 -13 33 -13 25 0 -3 6 -14 10 -23 10 -15 0 -15 -2 -2
-10z"/>
<path d="M2682 4480 c0 -19 2 -27 5 -17 2 9 2 25 0 35 -3 9 -5 1 -5 -18z"/>
<path d="M2797 4460 c3 -25 7 -47 9 -49 8 -9 2 55 -6 74 -6 13 -7 5 -3 -25z"/>
<path d="M3940 4458 c0 -19 75 -58 111 -58 16 0 29 -4 29 -10 0 -5 8 -10 19
-10 12 0 20 9 24 25 l4 26 -73 -3 c-72 -2 -89 3 -89 25 0 5 -6 12 -12 15 -7 2
-13 -3 -13 -10z"/>
<path d="M4465 4443 c-46 -10 -51 -14 -34 -23 19 -11 63 0 67 18 2 12 1 13
-33 5z"/>
<path d="M5082 4445 c9 -10 108 -13 114 -4 3 5 -23 9 -57 9 -34 0 -60 -2 -57
-5z"/>
<path d="M5375 4440 c3 -5 8 -10 11 -10 2 0 4 5 4 10 0 6 -5 10 -11 10 -5 0
-7 -4 -4 -10z"/>
<path d="M1620 4420 c-96 -3 -170 -7 -165 -8 6 -1 48 -4 93 -7 46 -3 89 -8 95
-12 7 -4 23 -7 37 -5 14 1 19 -1 13 -4 -26 -12 -11 -21 39 -23 28 -1 55 -4 60
-7 4 -3 8 -65 8 -137 0 -128 -1 -133 -25 -160 -28 -29 -33 -30 -141 -27 -43 1
-74 -3 -78 -9 -7 -11 35 -17 99 -13 17 0 45 -3 63 -8 19 -5 32 -5 32 1 0 5 10
9 23 9 43 0 45 8 52 198 4 101 8 191 9 200 1 20 10 20 -214 12z"/>
<path d="M2860 4409 c0 -11 4 -18 10 -14 5 3 7 12 3 20 -7 21 -13 19 -13 -6z"/>
<path d="M2711 4404 c0 -11 3 -14 6 -6 3 7 2 16 -1 19 -3 4 -6 -2 -5 -13z"/>
<path d="M2812 4375 c0 -16 2 -22 5 -12 2 9 2 23 0 30 -3 6 -5 -1 -5 -18z"/>
<path d="M4000 4389 c0 -5 11 -9 25 -9 14 0 25 2 25 4 0 2 -11 6 -25 8 -14 3
-25 1 -25 -3z"/>
<path d="M3036 4323 c-9 -26 -12 -43 -7 -38 11 13 32 77 27 82 -2 2 -11 -17
-20 -44z"/>
<path d="M2821 4324 c0 -11 3 -14 6 -6 3 7 2 16 -1 19 -3 4 -6 -2 -5 -13z"/>
<path d="M2832 4265 c0 -16 4 -41 8 -55 l8 -25 1 25 c1 14 4 36 6 50 5 21 4
22 -4 5 -8 -19 -9 -19 -13 5 -5 22 -5 22 -6 -5z"/>
<path d="M2760 4248 c0 -16 5 -28 10 -28 13 0 13 20 0 40 -8 12 -10 9 -10 -12z"/>
<path d="M3005 4190 c-4 -17 -5 -34 -2 -36 3 -3 8 9 12 26 4 17 5 34 2 36 -3
3 -8 -9 -12 -26z"/>
<path d="M4512 4137 c-6 -7 -7 -18 -3 -26 7 -10 10 -8 16 8 8 27 2 36 -13 18z"/>
<path d="M2888 4118 c-2 -13 -9 -22 -16 -20 -6 1 -12 -5 -12 -13 0 -8 9 -15
20 -15 16 0 20 7 20 35 0 39 -7 47 -12 13z"/>
<path d="M2951 4113 c-1 -6 -4 -20 -7 -30 -5 -17 -5 -17 6 0 6 10 9 23 6 30
-3 9 -5 9 -5 0z"/>
<path d="M2981 4094 c0 -11 3 -14 6 -6 3 7 2 16 -1 19 -3 4 -6 -2 -5 -13z"/>
<path d="M2830 4069 c0 -5 5 -7 10 -4 6 3 10 8 10 11 0 2 -4 4 -10 4 -5 0 -10
-5 -10 -11z"/>
<path d="M4252 4029 c7 -5 27 -9 45 -9 19 0 36 -7 41 -16 6 -11 11 -13 16 -5
4 6 18 11 32 11 13 0 24 4 24 9 0 5 8 12 18 14 9 3 -29 5 -86 4 -58 0 -97 -4
-90 -8z"/>
<path d="M3670 4020 c0 -6 16 -8 43 -4 58 9 59 14 4 14 -26 0 -47 -5 -47 -10z"/>
<path d="M6434 4014 c3 -9 6 -18 6 -20 0 -2 7 -4 16 -4 10 0 14 -6 10 -15 -3
-9 0 -15 9 -15 16 0 18 12 9 48 -5 15 -14 22 -31 22 -19 0 -24 -4 -19 -16z"/>
<path d="M6740 4009 c0 -5 5 -7 10 -4 6 3 10 8 10 11 0 2 -4 4 -10 4 -5 0 -10
-5 -10 -11z"/>
<path d="M1801 3974 c0 -11 3 -14 6 -6 3 7 2 16 -1 19 -3 4 -6 -2 -5 -13z"/>
<path d="M1730 3970 c0 -5 5 -10 11 -10 5 0 7 5 4 10 -3 6 -8 10 -11 10 -2 0
-4 -4 -4 -10z"/>
<path d="M1760 3970 c0 -5 7 -10 16 -10 8 0 12 5 9 10 -3 6 -10 10 -16 10 -5
0 -9 -4 -9 -10z"/>
<path d="M1256 3918 c9 -59 14 -60 14 -5 0 26 -5 47 -10 47 -6 0 -8 -16 -4
-42z"/>
<path d="M6672 3918 c-7 -9 -6 -17 3 -25 15 -14 25 -7 25 19 0 21 -13 24 -28
6z"/>
<path d="M6630 3910 c0 -5 5 -10 11 -10 5 0 7 5 4 10 -3 6 -8 10 -11 10 -2 0
-4 -4 -4 -10z"/>
<path d="M3930 3890 c0 -13 7 -20 18 -20 26 0 34 11 21 27 -17 20 -39 16 -39
-7z"/>
<path d="M5114 3618 c1 -38 5 -68 9 -68 15 0 16 26 3 80 l-13 55 1 -67z"/>
<path d="M7070 3670 c0 -5 4 -10 9 -10 6 0 13 5 16 10 3 6 -1 10 -9 10 -9 0
-16 -4 -16 -10z"/>
<path d="M1785 3650 c-3 -5 -1 -10 4 -10 6 0 11 5 11 10 0 6 -2 10 -4 10 -3 0
-8 -4 -11 -10z"/>
<path d="M4963 3630 c-3 -11 -9 -20 -14 -20 -14 0 -11 -36 4 -49 11 -9 16 -3
25 28 7 21 12 43 12 50 0 19 -22 12 -27 -9z"/>
<path d="M1355 3630 c4 -6 11 -8 16 -5 14 9 11 15 -7 15 -8 0 -12 -5 -9 -10z"/>
<path d="M5064 3617 c4 -18 2 -35 -6 -45 -11 -13 -11 -14 2 -10 19 6 26 57 9
72 -9 8 -10 5 -5 -17z"/>
<path d="M1605 3621 l-30 -7 25 -8 c14 -5 43 -8 65 -7 22 1 61 -2 88 -7 44 -9
47 -8 47 12 0 20 -6 21 -83 22 -45 1 -95 -2 -112 -5z"/>
<path d="M3961 3625 c11 -10 131 -16 124 -6 -3 6 -34 11 -67 11 -34 0 -59 -2
-57 -5z"/>
<path d="M4110 3620 c-21 -13 32 -20 150 -19 105 1 206 13 155 19 -58 6 -295
6 -305 0z"/>
<path d="M4890 3609 c0 -11 5 -17 10 -14 6 3 10 13 10 21 0 8 -4 14 -10 14 -5
0 -10 -9 -10 -21z"/>
<path d="M1075 3611 c-16 -3 -25 -9 -20 -13 14 -8 75 2 75 13 0 10 -10 10 -55
0z"/>
<path d="M5854 3609 c-2 -4 3 -10 12 -13 8 -3 14 -14 12 -23 -5 -27 58 -31 67
-5 3 11 17 23 32 26 14 4 23 9 20 12 -8 8 -138 10 -143 3z"/>
<path d="M1351 3586 c-9 -10 -9 -16 -1 -21 17 -10 37 12 24 25 -8 8 -15 6 -23
-4z"/>
<path d="M3571 3576 c2 -2 26 -7 52 -10 33 -5 47 -3 42 4 -3 5 -27 10 -52 10
-26 0 -44 -2 -42 -4z"/>
<path d="M4868 3573 c6 -2 18 -2 25 0 6 3 1 5 -13 5 -14 0 -19 -2 -12 -5z"/>
<path d="M4816 3490 c2 -41 7 -73 11 -70 10 6 7 88 -5 120 -7 18 -8 4 -6 -50z"/>
<path d="M4757 3503 c3 -34 1 -58 -6 -67 -9 -11 -9 -16 0 -21 12 -8 29 12 29
35 0 8 -7 35 -15 60 l-14 45 6 -52z"/>
<path d="M1650 3506 c0 -7 6 -20 13 -30 12 -17 14 -17 20 -2 4 9 16 16 29 16
17 0 19 3 10 12 -16 16 -72 19 -72 4z"/>
<path d="M3957 3514 c-14 -14 -7 -35 11 -32 9 2 17 10 17 17 0 16 -18 25 -28
15z"/>
<path d="M4255 3512 c-3 -3 -5 -13 -5 -22 0 -12 8 -15 35 -12 25 3 35 9 35 21
0 13 -8 18 -30 18 -16 0 -32 -3 -35 -5z"/>
<path d="M5001 3493 c-1 -35 -11 -42 -31 -19 -6 8 -18 12 -26 9 -8 -3 -14 1
-14 8 0 7 -2 10 -5 7 -4 -3 -3 -18 1 -33 5 -21 11 -25 27 -21 11 3 28 1 38 -4
21 -12 28 11 18 55 l-7 30 -1 -32z"/>
<path d="M4870 3465 c0 -25 5 -45 10 -45 6 0 10 20 10 45 0 25 -4 45 -10 45
-5 0 -10 -20 -10 -45z"/>
<path d="M3735 3490 c-9 -15 4 -30 27 -30 14 0 18 5 14 16 -3 9 -6 18 -6 20 0
8 -29 4 -35 -6z"/>
<path d="M5584 3484 c3 -9 6 -18 6 -20 0 -2 5 -4 10 -4 6 0 10 9 10 20 0 12
-7 20 -16 20 -11 0 -14 -5 -10 -16z"/>
<path d="M1664 3438 c-9 -15 10 -30 29 -22 9 3 17 10 17 14 0 12 -39 19 -46 8z"/>
<path d="M1720 3430 c0 -5 5 -10 10 -10 6 0 10 5 10 10 0 6 -4 10 -10 10 -5 0
-10 -4 -10 -10z"/>
<path d="M1698 3358 c-21 -20 -38 -40 -38 -44 0 -4 -7 -16 -17 -26 -12 -14
-13 -18 -3 -18 9 0 7 -5 -6 -15 -10 -8 -14 -15 -7 -15 6 0 24 10 40 23 31 26
63 40 63 29 0 -14 -23 -32 -41 -32 -9 0 -22 -6 -28 -14 -10 -12 -35 -19 -106
-31 -5 -1 -23 -3 -40 -4 -28 -3 -27 -4 15 -17 25 -8 52 -17 60 -20 24 -10 72
-15 67 -6 -3 4 11 8 31 10 20 1 41 7 46 12 16 16 26 12 35 -12 7 -20 10 -16
16 25 8 49 1 72 -14 48 -10 -16 -21 8 -21 46 0 18 -4 24 -15 19 -13 -5 -14 -2
-5 15 6 11 10 30 8 42 -3 21 -5 20 -40 -15z"/>
<path d="M4798 3373 c-9 -10 -13 -24 -11 -31 3 -9 10 -4 19 14 17 32 13 41 -8
17z"/>
<path d="M4888 3384 c-5 -4 -8 -16 -8 -28 0 -14 3 -17 11 -9 6 6 9 19 7 28 -1
9 -6 13 -10 9z"/>
<path d="M5035 3364 c0 -13 3 -24 8 -24 4 0 7 9 7 19 0 11 -3 22 -7 24 -5 3
-8 -6 -8 -19z"/>
<path d="M5090 3363 c0 -21 3 -24 9 -14 5 8 7 20 4 28 -8 21 -13 15 -13 -14z"/>
<path d="M5128 3366 c-3 -14 -1 -26 4 -26 14 0 22 30 11 41 -7 7 -12 2 -15
-15z"/>
<path d="M4850 3354 c0 -14 4 -23 9 -20 5 3 7 15 4 26 -7 28 -13 25 -13 -6z"/>
<path d="M4978 3358 c-6 -16 3 -68 11 -68 4 0 5 18 3 40 -4 41 -8 48 -14 28z"/>
<path d="M6246 3313 c-3 -4 -6 -27 -6 -52 0 -51 13 -46 28 11 8 28 7 38 -3 42
-7 2 -16 2 -19 -1z"/>
<path d="M5623 3302 c-13 -2 -23 -8 -23 -13 0 -13 37 -11 45 2 9 14 5 16 -22
11z"/>
<path d="M4950 3258 c3 -24 3 -56 -1 -71 -8 -30 8 -48 22 -26 12 19 11 34 -3
83 -16 58 -26 65 -18 14z"/>
<path d="M1072 3243 c2 -14 15 -19 56 -21 28 -2 60 2 69 7 17 10 16 10 -2 12
-11 0 -36 0 -56 -1 -21 -1 -40 3 -44 9 -10 17 -27 13 -23 -6z"/>
<path d="M1570 3250 c-13 -8 -12 -10 3 -10 9 0 17 5 17 10 0 12 -1 12 -20 0z"/>
<path d="M4741 3233 c13 -34 4 -57 -19 -48 -14 5 -15 4 -4 -7 29 -29 69 35 42
68 -20 23 -30 16 -19 -13z"/>
<path d="M4814 3225 c-16 -33 -14 -65 4 -65 9 0 32 58 32 83 0 28 -18 19 -36
-18z"/>
<path d="M4890 3211 c0 -22 5 -43 10 -46 6 -4 10 12 10 39 0 25 -4 46 -10 46
-5 0 -10 -18 -10 -39z"/>
<path d="M4230 3221 c0 -26 -20 -31 -82 -22 -29 5 -56 7 -59 5 -14 -8 -253 -3
-444 10 -78 6 -86 1 -33 -22 20 -8 28 -8 31 1 3 9 8 9 18 0 7 -7 31 -13 54
-13 22 0 51 -8 65 -17 21 -15 55 -17 240 -19 118 -1 222 -3 230 -4 8 0 38 2
65 5 44 6 48 5 33 -8 -23 -18 -23 -27 1 -27 10 0 21 7 25 15 3 8 10 15 15 15
6 0 8 -7 5 -15 -5 -11 1 -15 18 -15 15 0 24 6 25 18 1 9 4 27 8 39 6 18 2 25
-18 32 -14 6 -42 7 -61 4 -30 -5 -36 -3 -36 12 0 13 -6 16 -27 12 -15 -3 -37
-1 -50 4 -19 7 -23 5 -23 -10z"/>
<path d="M5008 3200 c-5 -49 -1 -67 9 -32 6 23 18 28 28 12 7 -12 25 -4 25 11
0 5 -6 9 -14 9 -7 0 -20 10 -28 22 -15 22 -16 22 -20 -22z"/>
<path d="M5485 3190 c3 -5 8 -10 11 -10 2 0 4 5 4 10 0 6 -5 10 -11 10 -5 0
-7 -4 -4 -10z"/>
<path d="M3935 3110 c-3 -5 3 -10 14 -10 11 0 23 5 26 10 3 6 -3 10 -14 10
-11 0 -23 -4 -26 -10z"/>
<path d="M4220 3110 c0 -5 5 -10 10 -10 6 0 10 5 10 10 0 6 -4 10 -10 10 -5 0
-10 -4 -10 -10z"/>
<path d="M1065 3100 c-3 -5 -1 -10 4 -10 6 0 11 5 11 10 0 6 -2 10 -4 10 -3 0
-8 -4 -11 -10z"/>
<path d="M1735 3059 c-4 -6 -5 -13 -2 -16 7 -7 27 6 27 18 0 12 -17 12 -25 -2z"/>
<path d="M6370 3030 c0 -22 6 -43 13 -47 8 -4 17 -17 22 -28 8 -18 9 -17 13
10 2 16 -1 31 -7 33 -6 2 -13 19 -17 38 -9 46 -24 43 -24 -6z"/>
<path d="M1030 2928 c0 -17 2 -18 15 -8 8 7 15 14 15 15 0 2 -7 5 -15 9 -10 4
-15 -1 -15 -16z"/>
<path d="M1120 2760 c0 -5 7 -10 15 -10 8 0 15 5 15 10 0 6 -7 10 -15 10 -8 0
-15 -4 -15 -10z"/>
<path d="M6439 2742 c-1 -4 0 -17 1 -29 1 -13 -3 -23 -9 -23 -6 0 -11 -4 -11
-10 0 -5 19 -10 42 -10 41 0 41 0 22 21 -14 15 -15 22 -6 28 9 5 5 11 -13 19
-14 6 -25 8 -26 4z"/>
<path d="M4930 2705 c1 -26 2 -28 11 -12 8 14 8 22 0 30 -8 8 -11 3 -11 -18z"/>
<path d="M6857 2713 c-17 -16 -4 -30 29 -31 29 -1 35 2 30 14 -3 9 -6 18 -6
20 0 7 -46 5 -53 -3z"/>
<path d="M5950 2699 c0 -5 5 -7 10 -4 6 3 10 8 10 11 0 2 -4 4 -10 4 -5 0 -10
-5 -10 -11z"/>
<path d="M5568 2654 c4 -25 7 -26 51 -19 68 10 72 23 8 27 -20 2 -37 6 -37 11
0 4 -6 7 -14 7 -9 0 -12 -8 -8 -26z"/>
<path d="M5686 2662 c-13 -12 17 -32 40 -26 14 4 31 1 39 -6 9 -8 15 -8 15 -2
0 7 11 8 32 1 22 -6 34 -6 36 1 2 6 8 8 13 5 5 -4 6 1 3 10 -5 13 -9 13 -21 3
-12 -10 -17 -9 -27 2 -11 15 -118 24 -130 12z"/>
<path d="M5941 2656 c-6 -8 -10 -20 -9 -27 2 -7 -5 -15 -14 -17 -10 -2 -18 1
-18 7 0 6 5 11 10 11 6 0 10 7 10 15 0 8 -9 15 -20 15 -17 0 -19 -4 -14 -26 7
-27 7 -27 -41 -22 -26 3 -42 2 -36 -2 9 -5 9 -9 -3 -13 -9 -4 -16 -1 -16 6 0
7 -9 13 -20 13 -14 0 -19 -5 -15 -16 5 -12 4 -13 -6 -2 -17 16 -29 15 -29 -1
0 -8 -14 -13 -37 -13 -21 -1 -30 1 -20 3 25 6 11 23 -20 23 -21 0 -24 -2 -13
-15 10 -12 10 -15 -4 -15 -23 0 -20 -8 15 -37 37 -31 95 -43 85 -17 -4 10 -1
14 6 12 7 -3 13 -10 13 -16 0 -5 3 -14 8 -18 11 -11 9 14 -4 37 -10 20 -9 20
19 5 16 -8 32 -12 36 -8 4 3 24 7 45 7 32 1 37 -2 33 -17 -2 -10 0 -18 6 -18
6 0 12 10 14 23 2 18 8 21 31 19 21 -3 27 1 27 17 0 11 -4 22 -10 26 -5 3 -6
13 -3 21 4 11 14 14 34 10 26 -5 28 -4 17 14 -7 10 -14 17 -17 15 -2 -3 -10 0
-16 5 -9 7 -16 6 -24 -4z m-11 -66 c0 -5 -5 -10 -11 -10 -5 0 -7 5 -4 10 3 6
8 10 11 10 2 0 4 -4 4 -10z m-240 -51 c0 -6 -4 -7 -10 -4 -5 3 -10 11 -10 16
0 6 5 7 10 4 6 -3 10 -11 10 -16z"/>
<path d="M6775 2656 c-11 -8 -26 -11 -34 -8 -10 4 -12 1 -6 -8 6 -10 4 -12 -8
-7 -11 4 -14 2 -10 -9 9 -24 58 -17 73 11 16 31 10 39 -15 21z"/>
<path d="M4960 2650 c0 -5 7 -10 16 -10 8 0 12 5 9 10 -3 6 -10 10 -16 10 -5
0 -9 -4 -9 -10z"/>
<path d="M5446 2645 c-3 -9 0 -15 9 -15 16 0 20 16 6 24 -5 3 -11 -1 -15 -9z"/>
<path d="M5016 2637 c3 -10 9 -15 12 -12 3 3 0 11 -7 18 -10 9 -11 8 -5 -6z"/>
<path d="M5130 2635 c-11 -13 -10 -14 4 -9 9 3 16 10 16 15 0 13 -6 11 -20 -6z"/>
<path d="M5488 2633 c7 -3 16 -2 19 1 4 3 -2 6 -13 5 -11 0 -14 -3 -6 -6z"/>
<path d="M5966 2612 c-10 -17 16 -63 32 -57 7 3 18 5 23 5 6 0 7 5 3 11 -3 6
0 15 7 20 10 6 7 9 -11 9 -15 0 -31 5 -37 11 -7 7 -13 7 -17 1z"/>
<path d="M5480 2592 c0 -7 -7 -20 -15 -28 -22 -22 -18 -32 10 -26 26 5 32 26
15 52 -7 11 -10 12 -10 2z"/>
<path d="M4994 2572 c-13 -8 -2 -46 17 -58 9 -5 10 -2 6 9 -5 14 1 17 37 17
39 0 56 11 56 34 0 7 -87 -1 -99 -8 -10 -6 -12 -5 -7 2 8 14 6 15 -10 4z"/>
<path d="M4883 2555 c-3 -9 -3 -18 -1 -21 3 -3 8 4 11 16 6 23 -1 27 -10 5z"/>
<path d="M4933 2560 c-23 -9 -32 -30 -13 -30 6 0 10 5 10 12 0 9 3 9 12 0 18
-18 28 -15 28 8 0 22 -4 23 -37 10z"/>
<path d="M5545 2560 c-3 -5 -1 -10 4 -10 6 0 11 5 11 10 0 6 -2 10 -4 10 -3 0
-8 -4 -11 -10z"/>
<path d="M6030 2540 c0 -6 7 -10 15 -10 8 0 15 2 15 4 0 2 -7 6 -15 10 -8 3
-15 1 -15 -4z"/>
<path d="M6275 2520 c4 -19 8 -36 9 -37 1 -1 19 2 41 7 24 6 115 5 230 0 105
-5 199 -9 210 -9 50 2 -35 16 -110 18 -98 2 -236 18 -270 31 -14 5 -38 7 -55
4 -19 -4 -36 -1 -46 7 -15 12 -16 10 -9 -21z"/>
<path d="M5119 2517 c6 -8 8 -16 6 -19 -3 -3 3 -8 15 -11 11 -3 20 -2 20 1 -1
14 -28 42 -40 42 -9 0 -10 -3 -1 -13z"/>
<path d="M5095 2450 c3 -5 8 -10 11 -10 2 0 4 5 4 10 0 6 -5 10 -11 10 -5 0
-7 -4 -4 -10z"/>
<path d="M4765 2440 c-3 -5 -1 -10 4 -10 6 0 11 5 11 10 0 6 -2 10 -4 10 -3 0
-8 -4 -11 -10z"/>
<path d="M4849 2440 c-6 -4 -21 -6 -33 -3 -19 4 -20 3 -3 -7 10 -7 28 -10 38
-7 28 8 79 -12 79 -30 0 -12 -3 -12 -16 2 -14 13 -19 14 -25 3 -6 -8 -9 -9 -9
-2 0 17 -61 12 -81 -7 -10 -11 -30 -15 -53 -14 -20 2 -34 -1 -31 -5 3 -5 -1
-13 -10 -17 -9 -6 1 -8 29 -8 25 0 44 2 44 5 -1 18 5 19 30 7 17 -9 63 -15
124 -16 94 -1 98 0 114 25 13 19 19 22 25 12 7 -10 9 -9 9 3 0 23 -32 29 -50
10 -13 -14 -15 -14 -18 3 -2 9 -9 15 -15 13 -47 -19 -48 -19 -53 0 -6 21 -75
45 -95 33z"/>
<path d="M5018 2423 c7 -3 16 -2 19 1 4 3 -2 6 -13 5 -11 0 -14 -3 -6 -6z"/>
<path d="M5292 2412 c-7 -5 -14 -23 -17 -40 -3 -24 0 -32 12 -32 9 0 13 3 10
7 -4 3 1 12 11 20 16 12 16 13 0 7 -10 -3 -18 -1 -18 5 0 10 13 15 32 12 4 0
5 6 2 14 -7 17 -13 18 -32 7z"/>
<path d="M5230 2400 c0 -5 5 -10 11 -10 5 0 7 5 4 10 -3 6 -8 10 -11 10 -2 0
-4 -4 -4 -10z"/>
<path d="M5138 2389 c-10 -5 -18 -17 -18 -26 0 -13 3 -14 12 -5 15 15 45 16
50 1 5 -15 38 0 38 18 0 13 -3 13 -16 2 -14 -11 -18 -11 -29 4 -14 20 -14 20
-37 6z"/>
<path d="M7025 2370 c-3 -6 1 -7 9 -4 18 7 21 14 7 14 -6 0 -13 -4 -16 -10z"/>
<path d="M7085 2360 c-4 -6 -13 -9 -21 -6 -18 7 -7 -22 19 -51 27 -30 37 -29
37 5 -1 33 -25 69 -35 52z"/>
<path d="M6894 2337 c-8 -21 -3 -29 13 -19 8 5 9 13 3 22 -7 12 -10 12 -16 -3z"/>
<path d="M6973 2344 c3 -4 0 -13 -8 -21 -8 -8 -15 -19 -15 -24 0 -15 20 -10
26 6 4 8 10 12 15 9 11 -6 11 -1 3 20 -3 9 -11 16 -17 16 -6 0 -8 -3 -4 -6z"/>
<path d="M6810 2279 c0 -5 9 -9 20 -9 11 0 20 2 20 4 0 2 -9 6 -20 9 -11 3
-20 1 -20 -4z"/>
</g>
</svg>
