<svg width="76" height="94" viewBox="0 0 76 94" fill="none" xmlns="http://www.w3.org/2000/svg">
<path fill-rule="evenodd" clip-rule="evenodd" d="M48.6949 0.132809C50.1749 0.107293 52.242 0.285905 53.2882 0.490033C54.3345 0.719677 56.1208 1.17897 57.2436 1.56171C58.3664 1.91893 60.0251 2.60786 60.9438 3.04164C61.8625 3.50092 63.4702 4.49605 64.5164 5.23601C65.5627 5.97598 67.1704 7.35384 68.089 8.27242C69.0077 9.191 70.2836 10.6709 70.9471 11.5895C71.6106 12.5081 72.5803 14.1666 73.1672 15.2893C73.7287 16.412 74.4687 18.3512 74.8515 19.627C75.2087 20.8773 75.617 22.8931 75.7446 24.0924C75.8722 25.3937 75.8722 33.2271 75.7446 43.6121C75.566 56.8294 75.4384 61.4478 75.1577 63.0043C74.9536 64.127 74.5197 65.9641 74.2135 67.0869C73.9073 68.2096 73.2438 70.0467 72.7845 71.1694C72.2996 72.2921 71.2789 74.2313 70.5388 75.5071C69.7733 76.7829 68.3953 78.7222 67.5021 79.8449C66.609 80.9676 65.0778 82.6261 64.1081 83.5192C63.1384 84.4377 61.3776 85.8922 60.1783 86.7852C58.9789 87.6783 56.6312 89.0817 54.9469 89.9237C53.2627 90.7657 51.0171 91.7353 49.9708 92.067C48.9245 92.4243 46.5003 93.0111 44.6119 93.3939C41.4986 94.0062 40.7841 94.0573 37.3391 93.9297C34.9148 93.8532 32.6181 93.598 31.087 93.2663C29.76 92.9856 27.7441 92.4498 26.6212 92.0926C25.4984 91.7098 23.3038 90.8168 21.7727 90.0513C20.2416 89.3113 17.9449 87.959 16.669 87.0659C15.4185 86.1984 13.2239 84.3102 11.8204 82.9068C10.4169 81.5034 8.60507 79.4366 7.81399 78.3139C7.02291 77.1912 5.79802 75.1754 5.0835 73.8486C4.39449 72.5218 3.34823 70.0467 2.78682 68.3626C2.22541 66.6786 1.56192 64.2035 1.33225 62.8767C1.02603 61.2692 0.898438 59.1514 0.898438 56.6253C0.898438 53.9461 1.02603 52.211 1.33225 50.8842C1.56192 49.838 2.04678 48.1029 2.40404 47.0568C2.7613 46.0106 3.60341 44.1224 4.24138 42.8466C4.90487 41.5708 6.07872 39.6826 6.8698 38.6365C7.66088 37.5903 9.21752 35.8552 10.3148 34.8091C11.4376 33.7374 13.1984 32.283 14.2447 31.5941C15.291 30.8796 16.7455 30.0121 17.4345 29.6548C18.149 29.2976 19.425 28.7363 21.9258 27.7922L21.9003 26.3122C21.9003 25.5212 22.0279 23.9648 22.181 22.8676C22.3341 21.7959 22.7424 19.9843 23.0997 18.8616C23.4569 17.7389 24.1714 15.9527 24.7073 14.9066C25.2432 13.8604 26.1874 12.304 26.7999 11.4619C27.4123 10.6199 28.5607 9.29306 29.3262 8.50206C30.0918 7.73658 31.3422 6.61388 32.1077 6.00149C32.8733 5.38911 34.2513 4.47053 35.17 3.9347C36.0887 3.39886 37.7474 2.58235 38.8702 2.14857C39.993 1.68929 42.06 1.05139 43.4635 0.719677C45.2243 0.336937 46.8575 0.132809 48.6949 0.132809ZM43.9739 13.9115C43.1318 14.2177 41.6517 14.9831 40.682 15.6466C39.7123 16.2845 38.4619 17.3306 37.926 17.9685C37.3901 18.6064 36.548 19.9077 36.0631 20.9029C35.5783 21.8725 35.0424 23.3269 34.8893 24.0924C34.7106 24.8578 34.6596 25.6999 34.7617 25.9295C34.8638 26.2612 35.1955 26.3888 35.9866 26.3888C36.599 26.3888 38.0025 26.6184 39.1254 26.8991C40.2482 27.1798 41.9069 27.7667 42.8256 28.2004C43.7442 28.6342 45.1733 29.4762 46.0154 30.0631C46.8575 30.6755 48.1845 31.8492 48.95 32.7168C49.7156 33.5588 50.7619 34.9111 51.2467 35.7277C51.7316 36.5697 52.4461 38.1006 52.8289 39.1468C53.1861 40.193 53.6455 42.0301 53.7986 43.2294C54.0538 44.9389 54.0538 45.8575 53.7986 47.5671C53.6455 48.7663 53.2627 50.3739 52.9565 51.1393C52.6758 51.9048 52.1399 53.053 51.7826 53.6909C51.4254 54.3288 50.4301 55.5791 49.588 56.4467C48.7459 57.3397 47.4189 58.488 46.6534 58.9983C45.8878 59.5086 44.2801 60.2741 43.0808 60.6823C41.1924 61.3457 40.5544 61.4478 38.1046 61.4478C35.6293 61.4478 35.0424 61.3713 33.1285 60.6823C31.9291 60.2741 30.3214 59.5086 29.5559 58.9983C28.7903 58.488 27.4123 57.2887 26.4936 56.3191C25.575 55.375 24.4777 53.8951 24.0183 53.053C23.559 52.211 22.9721 50.6035 22.6658 49.4808C22.2831 48.0009 22.1555 46.6485 22.1555 44.5562C22.1555 42.9997 22.0789 41.6984 21.9513 41.6984C21.8492 41.6984 21.3644 41.9536 20.8795 42.2598C20.3947 42.566 19.3739 43.3314 18.6084 43.9693C17.8683 44.6072 16.6945 45.9341 16.0565 46.9292C15.393 47.8988 14.5764 49.5829 14.2447 50.629C13.6833 52.3386 13.6067 52.951 13.6322 56.4977C13.6322 59.33 13.7598 60.9375 14.0661 62.1623C14.2957 63.1319 14.8571 64.8414 15.3165 65.9897C15.7758 67.1634 16.771 69.0771 17.5621 70.2764C18.3532 71.4756 19.7822 73.2362 20.7775 74.2058C21.7472 75.1499 23.4569 76.5533 24.5797 77.2933C25.7026 78.0587 27.4633 79.0028 28.4586 79.4366C29.4793 79.8704 31.3167 80.4828 32.5416 80.789C34.3023 81.2227 35.5528 81.3503 38.2322 81.3503C40.4523 81.3503 42.3152 81.1972 43.4635 80.9421C44.4588 80.7124 46.0409 80.2276 47.0361 79.8449C48.0314 79.4621 49.7411 78.6201 50.8384 77.9567C51.9612 77.3188 53.8241 75.8644 55.0235 74.7417C56.2229 73.619 57.6774 72.0114 58.2899 71.1694C58.8768 70.3274 59.821 68.7199 60.3824 67.5972C60.9438 66.4745 61.6583 64.7394 61.939 63.7698C62.2453 62.7746 62.6025 61.2947 62.7301 60.4527C62.8577 59.6107 62.9853 51.3435 62.9853 42.0811C63.0108 30.0631 62.9343 24.8323 62.7301 23.8372C62.5515 23.0717 62.0922 21.7194 61.6839 20.8263C61.2756 19.9332 60.3058 18.5554 59.4637 17.6368C58.6216 16.7693 57.3967 15.6721 56.7077 15.2383C56.0187 14.779 54.6662 14.1156 53.671 13.7839C52.6758 13.4522 51.0936 13.1205 50.0984 13.0439C49.1032 12.9674 47.6741 12.9929 46.9086 13.1205C46.143 13.248 44.816 13.5798 43.9739 13.9115ZM34.0216 40.6778C33.9196 41.877 33.894 43.5866 33.9961 44.5052C34.0982 45.5768 34.3534 46.4699 34.7362 47.0313C35.0424 47.5161 35.6293 48.154 36.0121 48.4346C36.497 48.7919 37.2625 48.996 38.1812 49.0725C39.3295 49.1491 39.8654 49.047 40.6565 48.6133C41.2179 48.3071 41.9579 47.6436 42.3152 47.1078C42.698 46.5209 42.9787 45.7044 43.0297 44.8879C43.1063 44.0714 42.9787 43.2804 42.7235 42.719C42.4938 42.2342 42.009 41.5963 41.6007 41.2902C41.2179 40.984 40.3247 40.4736 39.6357 40.1164C38.9212 39.7592 37.5177 39.1723 36.4969 38.7896C35.5017 38.4324 34.6086 38.1262 34.532 38.1262C34.481 38.1262 34.3789 38.2282 34.3023 38.3303C34.2513 38.4324 34.1237 39.504 34.0216 40.6778Z" fill="#FAFAFA"/>
</svg>
