<svg width="25" height="25" viewBox="0 0 25 25" fill="none" xmlns="http://www.w3.org/2000/svg">
<path opacity="0.4" d="M7.72939 16.3592L7.7294 16.3592C10.8894 14.4776 14.9026 14.4776 18.0626 16.3592L18.0626 16.3592C19.8616 17.4304 20.7787 18.9185 20.7403 20.0081C20.7221 20.5237 20.4941 20.9827 19.9844 21.3302C19.4565 21.6901 18.5963 21.948 17.3051 21.948H8.48689C7.19569 21.948 6.33554 21.6901 5.80759 21.3302C5.29789 20.9827 5.06989 20.5237 5.05172 20.0081C5.01332 18.9185 5.93039 17.4304 7.72939 16.3592Z" stroke="#769488"/>
<path d="M7.47359 15.9296C3.72558 18.1613 3.093 22.448 8.48689 22.448H17.3051C22.699 22.448 22.0665 18.1613 18.3184 15.9296C15.0008 13.9541 10.7912 13.9541 7.47359 15.9296Z" fill="#3F514A"/>
<path d="M17.396 6.948C17.396 9.43328 15.3813 11.448 12.896 11.448C10.4107 11.448 8.396 9.43328 8.396 6.948C8.396 4.46272 10.4107 2.448 12.896 2.448C15.3813 2.448 17.396 4.46272 17.396 6.948Z" fill="#3F514A"/>
</svg>
