<svg width="24" height="21" viewBox="0 0 24 21" fill="none" xmlns="http://www.w3.org/2000/svg">
<path opacity="0.4" d="M0 10.4289C0 11.1039 0.525 11.6327 1.2 11.6327H2.4V14.2464C2.39625 14.2802 2.39625 14.3139 2.39625 14.3514V18.5514C2.39625 19.3802 3.0675 20.0514 3.89625 20.0514H4.49625C4.54125 20.0514 4.58625 20.0477 4.63125 20.0439C4.6875 20.0477 4.74375 20.0514 4.8 20.0514H5.99625H6.89625C7.725 20.0514 8.39625 19.3802 8.39625 18.5514V17.6514V15.2514C8.39625 14.5877 8.9325 14.0514 9.59625 14.0514H11.9963H12.0225C12.3263 10.6877 15.1538 8.05141 18.5963 8.05141C18.93 8.05141 19.2563 8.07766 19.575 8.12266L11.6063 1.11016C11.3813 0.922656 11.0813 0.847656 10.8188 0.847656C10.5563 0.847656 10.2563 0.885156 9.99375 1.14766L0.375 9.52891C0.1125 9.79141 0 10.0914 0 10.4289Z" fill="#769488"/>
<path d="M0 10.4293C0 11.1043 0.525 11.633 1.2 11.633H1.4C1.95229 11.633 2.4 12.0807 2.4 12.633V14.2468C2.39625 14.2805 2.39625 14.3143 2.39625 14.3518V18.5518C2.39625 19.3805 3.0675 20.0518 3.89625 20.0518H4.49625C4.51632 20.0518 4.53639 20.051 4.55647 20.0499C4.60631 20.047 4.65624 20.0463 4.7061 20.0489C4.7374 20.0506 4.7687 20.0518 4.8 20.0518H5.99625H6.89625C7.725 20.0518 8.39625 19.3805 8.39625 18.5518V17.6518V15.2518C8.39625 14.588 8.9325 14.0518 9.59625 14.0518H11.9963C12.0111 14.0518 12.0235 14.0403 12.0249 14.0255C12.341 10.6743 15.1627 8.05177 18.5963 8.05177C18.888 8.05177 19.0567 7.66691 18.8377 7.47419L11.6063 1.11052C11.3813 0.923022 11.0813 0.848022 10.8188 0.848022C10.5563 0.848022 10.2563 0.885522 9.99375 1.14802L0.375 9.52927C0.1125 9.79177 0 10.0918 0 10.4293Z" fill="#3F514A"/>
<path d="M22.5355 19.0349C21.5979 19.9726 20.3261 20.4994 19 20.4994C17.6739 20.4994 16.4021 19.9726 15.4645 19.0349C14.5268 18.0972 14 16.8255 14 15.4994C14 14.1733 14.5268 12.9015 15.4645 11.9639C16.4021 11.0262 17.6739 10.4994 19 10.4994C20.3261 10.4994 21.5979 11.0262 22.5355 11.9639C23.4732 12.9015 24 14.1733 24 15.4994C24 16.8255 23.4732 18.0972 22.5355 19.0349Z" fill="#3F514A"/>
<path d="M21.3368 14.7806L18.8368 17.2806C18.6215 17.4959 18.2674 17.4959 18.0521 17.2806L16.6632 15.8918C16.4479 15.6765 16.4479 15.3223 16.6632 15.107C16.8785 14.8918 17.2326 14.8918 17.4479 15.107L18.4444 16.1036L20.5521 13.9959C20.7674 13.7806 21.1215 13.7806 21.3368 13.9959C21.5521 14.2112 21.5521 14.5654 21.3368 14.7806Z" fill="#A4B8B0"/>
</svg>
