<svg width="25" height="25" viewBox="0 0 25 25" fill="none" xmlns="http://www.w3.org/2000/svg">
<path opacity="0.4" d="M10.1065 6.16023L9.70384 5.25425C9.44056 4.66188 9.30892 4.36568 9.11205 4.13901C8.86532 3.85494 8.54371 3.64594 8.18392 3.53585C7.89683 3.448 7.5727 3.448 6.92445 3.448C5.97615 3.448 5.502 3.448 5.10397 3.63029C4.63511 3.84502 4.21168 4.31128 4.04297 4.7986C3.89975 5.21229 3.94078 5.63743 4.02282 6.4877C4.89615 15.5382 9.85806 20.5001 18.9085 21.3734C19.7588 21.4555 20.184 21.4965 20.5976 21.3533C21.085 21.1846 21.5512 20.7611 21.766 20.2923C21.9482 19.8942 21.9482 19.4201 21.9482 18.4718C21.9482 17.8235 21.9482 17.4994 21.8604 17.2123C21.7503 16.8525 21.5413 16.5309 21.2572 16.2842C21.0306 16.0873 20.7344 15.9557 20.142 15.6924L19.236 15.2897C18.5945 15.0046 18.2737 14.8621 17.9478 14.8311C17.6358 14.8014 17.3213 14.8452 17.0293 14.9589C16.7242 15.0777 16.4546 15.3024 15.9152 15.7518C15.3784 16.1992 15.11 16.4229 14.782 16.5427C14.4912 16.6489 14.1068 16.6883 13.8006 16.6431C13.4551 16.5922 13.1906 16.4509 12.6615 16.1681C11.0155 15.2885 10.1078 14.3808 9.22811 12.7347C8.94538 12.2057 8.80402 11.9411 8.75311 11.5957C8.70798 11.2894 8.74732 10.905 8.85354 10.6143C8.97336 10.2863 9.19705 10.0179 9.64443 9.481C10.0939 8.94168 10.3186 8.67202 10.4374 8.36691C10.5511 8.07494 10.5949 7.7604 10.5652 7.44848C10.5342 7.12252 10.3916 6.80176 10.1065 6.16023Z" fill="#769488"/>
<path d="M10.1065 6.16023L9.70384 5.25425C9.44056 4.66188 9.30892 4.36568 9.11205 4.13901C8.86532 3.85494 8.54371 3.64594 8.18392 3.53585C7.89683 3.448 7.5727 3.448 6.92445 3.448C5.97615 3.448 5.502 3.448 5.10397 3.63029C4.63511 3.84502 4.21168 4.31128 4.04297 4.7986C3.89975 5.21229 3.94078 5.63743 4.02282 6.4877C4.89615 15.5382 9.85806 20.5001 18.9085 21.3734C19.7588 21.4555 20.184 21.4965 20.5976 21.3533C21.085 21.1846 21.5512 20.7611 21.766 20.2923C21.9482 19.8942 21.9482 19.4201 21.9482 18.4718C21.9482 17.8235 21.9482 17.4994 21.8604 17.2123C21.7503 16.8525 21.5413 16.5309 21.2572 16.2842C21.0306 16.0873 20.7344 15.9557 20.142 15.6924L19.236 15.2897C18.5945 15.0046 18.2737 14.8621 17.9478 14.8311C17.6358 14.8014 17.3213 14.8452 17.0293 14.9589C16.7242 15.0777 16.4546 15.3024 15.9152 15.7518C15.3784 16.1992 15.11 16.4229 14.782 16.5427C14.4912 16.6489 14.1068 16.6883 13.8006 16.6431C13.4551 16.5922 13.1906 16.4509 12.6615 16.1681C11.0155 15.2885 10.1078 14.3808 9.22811 12.7347C8.94538 12.2057 8.80402 11.9411 8.75311 11.5957C8.70798 11.2894 8.74732 10.905 8.85354 10.6143C8.97336 10.2863 9.19705 10.0179 9.64443 9.481C10.0939 8.94168 10.3186 8.67202 10.4374 8.36691C10.5511 8.07494 10.5949 7.7604 10.5652 7.44848C10.5342 7.12252 10.3916 6.80176 10.1065 6.16023Z" fill="#3F514A"/>
</svg>
