<svg width="40" height="41" viewBox="0 0 40 41" fill="none" xmlns="http://www.w3.org/2000/svg">
<path d="M20.3649 33.5144C27.5621 33.5144 33.4507 27.6258 33.4507 20.4286C33.4507 13.2314 27.5621 7.34275 20.3649 7.34275C13.1676 7.34275 7.27903 13.2314 7.27903 20.4286C7.27903 27.6258 13.1676 33.5144 20.3649 33.5144ZM20.3649 4.07129C29.3614 4.07129 36.7221 11.4321 36.7221 20.4286C36.7221 29.4251 29.3614 36.7859 20.3649 36.7859C11.3683 36.7859 4.00757 29.4251 4.00757 20.4286C4.00757 11.4321 11.3683 4.07129 20.3649 4.07129ZM28.5435 23.5365L27.3985 25.6629L18.7291 20.9193V12.2499H21.1827V19.4471L28.5435 23.5365Z" fill="white"/>
</svg>
