<svg width="16" height="15" viewBox="0 0 16 15" fill="none" xmlns="http://www.w3.org/2000/svg">
<path d="M9.3137 1.70108L10.4976 4.0885C10.6591 4.42084 11.0896 4.73962 11.4529 4.80065L13.5987 5.16012C14.971 5.39073 15.2939 6.39454 14.305 7.38478L12.6368 9.06681C12.3542 9.35166 12.1996 9.90104 12.287 10.2945L12.7646 12.3767C13.1413 14.0248 12.2735 14.6624 10.8273 13.801L8.81592 12.6005C8.4527 12.3835 7.85401 12.3835 7.48399 12.6005L5.47268 13.801C4.03313 14.6624 3.15864 14.018 3.53535 12.3767L4.01295 10.2945C4.1004 9.90104 3.94568 9.35166 3.66315 9.06681L1.99489 7.38478C1.01277 6.39454 1.32893 5.39073 2.70121 5.16012L4.84708 4.80065C5.20361 4.73962 5.63413 4.42084 5.79557 4.0885L6.97949 1.70108C7.62527 0.40563 8.67464 0.40563 9.3137 1.70108Z" fill="#FDC820" stroke="#FDC820" stroke-width="1.00914" stroke-linecap="round" stroke-linejoin="round"/>
</svg>
